<?xml version="1.0" standalone="no"?>
<!DOCTYPE svg PUBLIC "-//W3C//DTD SVG 20010904//EN"
 "http://www.w3.org/TR/2001/REC-SVG-20010904/DTD/svg10.dtd">
<svg version="1.0" xmlns="http://www.w3.org/2000/svg"
 width="1187.000000pt" height="1106.000000pt" viewBox="0 0 1187.000000 1106.000000"
 preserveAspectRatio="xMidYMid meet">

<g transform="translate(0.000000,1106.000000) scale(0.100000,-0.100000)"
fill="#000000" stroke="none">
<path d="M7293 10835 c-13 -13 -23 -31 -23 -40 0 -8 -4 -15 -10 -15 -5 0 -10
-13 -10 -29 0 -16 -6 -32 -12 -35 -10 -5 -10 -7 0 -12 6 -3 12 -23 12 -45 0
-21 5 -39 10 -39 6 0 10 -9 10 -20 0 -11 5 -20 10 -20 6 0 10 -33 10 -80 0
-47 -4 -80 -10 -80 -6 0 -10 -70 -10 -190 0 -120 -4 -190 -10 -190 -6 0 -10
-60 -10 -160 0 -100 -4 -160 -10 -160 -6 0 -10 -60 -10 -160 0 -100 -4 -160
-10 -160 -6 0 -10 -60 -10 -160 0 -100 -4 -160 -10 -160 -6 0 -10 -52 -10
-136 0 -140 -6 -164 -44 -164 -9 0 -16 -4 -16 -10 0 -5 -7 -10 -16 -10 -20 0
-44 -24 -44 -44 0 -9 -4 -16 -10 -16 -6 0 -10 -67 -10 -180 l0 -180 -30 0
c-16 0 -30 5 -30 10 0 6 -7 10 -15 10 -9 0 -28 12 -42 26 -21 21 -23 28 -12
36 11 7 11 11 2 15 -16 6 -18 143 -3 143 7 0 10 266 10 778 0 766 0 778 20
792 14 10 20 26 20 52 0 21 -4 38 -10 38 -5 0 -10 7 -10 15 0 20 -45 65 -65
65 -8 0 -15 5 -15 10 0 23 -52 8 -85 -25 -34 -33 -35 -37 -35 -110 0 -43 4
-75 10 -75 7 0 10 -257 10 -750 0 -493 -3 -750 -10 -750 -6 0 -10 -33 -10 -80
l0 -80 -30 0 c-16 0 -30 5 -30 10 0 6 -12 10 -26 10 -14 0 -32 6 -40 14 -16
17 -20 106 -4 106 6 0 10 73 10 200 0 127 4 200 10 200 6 0 10 57 10 150 0 93
-4 150 -10 150 -5 0 -10 7 -10 16 0 20 -24 44 -44 44 -9 0 -16 5 -16 10 0 6
-22 10 -50 10 -27 0 -50 -4 -50 -10 0 -5 -7 -10 -15 -10 -9 0 -27 -11 -40 -25
l-25 -24 0 -306 c0 -197 -4 -305 -10 -305 -5 0 -10 -13 -10 -30 0 -28 -2 -30
-40 -30 l-40 0 0 416 0 416 -30 28 c-18 17 -30 38 -30 54 0 14 -4 26 -10 26
-6 0 -10 45 -10 116 0 116 0 116 30 144 18 17 30 38 30 54 0 14 5 26 10 26 6
0 10 23 10 50 0 28 5 50 10 50 6 0 10 18 10 40 0 22 -4 40 -10 40 -5 0 -10 14
-10 30 0 17 -4 30 -10 30 -5 0 -10 7 -10 15 0 20 -45 65 -65 65 -8 0 -15 5
-15 10 0 6 -27 10 -60 10 -33 0 -60 -4 -60 -10 0 -5 -7 -10 -15 -10 -26 0 -85
-66 -85 -95 0 -14 -4 -25 -10 -25 -6 0 -10 -30 -10 -70 0 -40 4 -70 10 -70 6
0 10 -13 10 -30 0 -16 5 -30 10 -30 6 0 10 -7 10 -16 0 -9 14 -29 30 -44 17
-15 30 -35 30 -44 0 -9 5 -16 10 -16 6 0 10 -30 10 -70 0 -40 4 -70 10 -70 6
0 10 -18 10 -40 0 -22 5 -40 10 -40 6 0 10 -9 10 -20 0 -11 5 -20 10 -20 6 0
10 -13 10 -30 0 -16 5 -30 10 -30 7 0 10 -163 10 -470 l0 -470 -30 0 c-16 0
-30 5 -30 10 0 6 -22 10 -50 10 l-50 0 0 50 c0 28 -4 50 -10 50 -6 0 -10 60
-10 160 0 100 4 160 10 160 6 0 10 9 10 20 0 11 5 20 10 20 6 0 10 14 10 30 0
17 -4 30 -10 30 -5 0 -10 9 -10 20 0 13 -7 20 -20 20 -11 0 -20 5 -20 10 0 6
-9 10 -20 10 -11 0 -20 -4 -20 -10 0 -5 -7 -10 -16 -10 -27 0 -44 -27 -44 -70
0 -34 6 -48 30 -70 l30 -28 0 -196 0 -196 -110 0 -110 0 0 210 c0 133 4 210
10 210 6 0 10 9 10 20 0 11 5 20 10 20 6 0 10 9 10 20 0 11 5 20 10 20 6 0 10
14 10 30 0 17 -4 30 -10 30 -5 0 -10 11 -10 25 0 14 -11 37 -25 50 -13 14 -36
25 -50 25 -14 0 -25 5 -25 10 0 6 -9 10 -20 10 -11 0 -20 -4 -20 -10 0 -5 -12
-10 -26 -10 -29 0 -54 -21 -54 -44 0 -9 -4 -16 -10 -16 -6 0 -10 -27 -10 -60
0 -33 4 -60 10 -60 6 0 10 -30 10 -70 0 -40 4 -70 10 -70 6 0 10 -57 10 -150
0 -93 -4 -150 -10 -150 -5 0 -10 -13 -10 -30 0 -28 -2 -30 -40 -30 l-40 0 0
430 c0 280 3 430 10 430 6 0 10 80 10 220 0 140 4 220 10 220 6 0 10 67 10
180 0 113 4 180 10 180 6 0 10 9 10 20 0 11 5 20 10 20 6 0 10 27 10 60 0 33
-4 60 -10 60 -5 0 -10 7 -10 15 0 9 -11 27 -25 40 -19 20 -34 25 -75 25 -41 0
-56 -5 -75 -25 -14 -13 -25 -31 -25 -40 0 -8 -4 -15 -10 -15 -5 0 -10 -22 -10
-50 0 -27 5 -50 10 -50 6 0 10 -8 10 -18 0 -10 9 -24 20 -32 19 -14 20 -26 20
-382 0 -239 -4 -368 -10 -368 -6 0 -10 -113 -10 -320 0 -207 -4 -320 -10 -320
-6 0 -10 -55 -10 -146 0 -163 -4 -174 -64 -174 -20 0 -36 -4 -36 -10 0 -5 -18
-10 -40 -10 l-40 0 0 270 c0 173 4 270 10 270 6 0 10 9 10 20 0 11 5 20 10 20
6 0 10 30 10 70 0 40 -4 70 -10 70 -5 0 -10 7 -10 16 0 29 -27 44 -80 44 -53
0 -80 -15 -80 -44 0 -9 -4 -16 -10 -16 -6 0 -10 -27 -10 -60 0 -33 4 -60 10
-60 6 0 10 -9 10 -20 0 -11 5 -20 10 -20 6 0 10 -9 10 -20 0 -11 5 -20 10 -20
6 0 10 -18 10 -40 0 -22 5 -40 10 -40 6 0 10 -83 10 -230 0 -223 -1 -230 -20
-230 -11 0 -20 -4 -20 -10 0 -5 -9 -10 -20 -10 -19 0 -20 7 -20 180 0 113 -4
180 -10 180 -5 0 -10 9 -10 20 0 13 -7 20 -20 20 -11 0 -20 5 -20 10 0 6 -9
10 -20 10 -20 0 -20 7 -20 485 l0 486 -25 24 c-18 19 -35 25 -65 25 -30 0 -47
-6 -65 -25 l-25 -24 0 -553 c0 -542 0 -554 20 -568 12 -8 20 -26 20 -42 0 -15
5 -28 10 -28 6 0 10 -48 10 -125 0 -120 -1 -127 -25 -150 -13 -14 -31 -25 -40
-25 -8 0 -15 -4 -15 -10 0 -5 -13 -10 -30 -10 -16 0 -30 -4 -30 -10 0 -5 -13
-10 -30 -10 -29 0 -30 1 -30 50 0 28 -4 50 -10 50 -6 0 -10 50 -10 130 0 80
-4 130 -10 130 -6 0 -10 57 -10 150 0 93 -4 150 -10 150 -6 0 -10 80 -10 220
0 140 -4 220 -10 220 -6 0 -10 123 -10 350 0 227 4 350 10 350 6 0 10 9 10 20
0 11 -4 20 -10 20 -5 0 -10 11 -10 25 0 33 -42 75 -74 75 -13 0 -27 6 -30 13
-5 10 -7 10 -12 0 -3 -7 -17 -13 -31 -13 -28 0 -53 -21 -53 -44 0 -9 -4 -16
-10 -16 -6 0 -10 -27 -10 -60 0 -33 4 -60 10 -60 6 0 10 -22 10 -50 0 -27 5
-50 10 -50 6 0 10 -33 10 -80 0 -47 4 -80 10 -80 6 0 10 -57 10 -150 0 -93 4
-150 10 -150 6 0 10 -63 10 -170 0 -107 4 -170 10 -170 6 0 10 -93 10 -260 0
-167 4 -260 10 -260 6 0 10 -78 10 -215 0 -216 0 -216 -25 -240 -13 -14 -31
-25 -40 -25 -8 0 -15 -4 -15 -10 0 -5 -9 -10 -20 -10 -11 0 -20 -4 -20 -10 0
-5 -9 -10 -20 -10 -11 0 -20 -4 -20 -10 0 -5 -9 -10 -20 -10 -11 0 -20 5 -20
10 0 6 -4 10 -10 10 -5 0 -10 -9 -10 -20 0 -11 5 -20 10 -20 6 0 10 -57 10
-150 0 -93 -4 -150 -10 -150 -5 0 -10 -4 -10 -10 0 -20 33 -9 60 20 15 17 35
30 44 30 9 0 16 5 16 10 0 6 8 10 18 10 10 0 24 9 32 20 8 11 21 20 30 20 9 0
22 9 30 20 8 11 22 20 32 20 10 0 18 5 18 10 0 6 9 10 20 10 11 0 20 5 20 10
0 6 9 10 20 10 11 0 20 5 20 10 0 6 9 10 20 10 11 0 20 5 20 10 0 6 8 10 18
10 10 0 24 9 32 20 8 12 26 20 42 20 15 0 28 5 28 10 0 6 9 10 20 10 11 0 20
5 20 10 0 6 9 10 20 10 11 0 20 5 20 10 0 6 9 10 20 10 11 0 20 5 20 10 0 6
14 10 30 10 17 0 30 5 30 10 0 6 9 10 20 10 11 0 20 5 20 10 0 6 18 10 40 10
22 0 40 5 40 10 0 6 14 10 30 10 17 0 30 5 30 10 0 6 14 10 30 10 17 0 30 5
30 10 0 6 18 10 40 10 22 0 40 5 40 10 0 6 18 10 40 10 22 0 40 5 40 10 0 6
23 10 50 10 28 0 50 5 50 10 0 6 27 10 60 10 33 0 60 4 60 10 0 6 30 10 70 10
40 0 70 4 70 10 0 6 90 10 250 10 160 0 250 -4 250 -10 0 -6 30 -10 70 -10 40
0 70 -4 70 -10 0 -6 27 -10 60 -10 33 0 60 -4 60 -10 0 -5 18 -10 40 -10 22 0
40 -4 40 -10 0 -5 18 -10 40 -10 22 0 40 -4 40 -10 0 -5 18 -10 40 -10 22 0
40 -4 40 -10 0 -5 14 -10 30 -10 17 0 30 -4 30 -10 0 -5 7 -10 16 -10 15 0 44
-23 44 -34 0 -3 -13 -6 -30 -6 -16 0 -30 -4 -30 -10 0 -5 -13 -10 -30 -10 -16
0 -30 -4 -30 -10 0 -5 -9 -10 -20 -10 -11 0 -20 -4 -20 -10 0 -5 -13 -10 -30
-10 -16 0 -30 -4 -30 -10 0 -5 -13 -10 -30 -10 -16 0 -30 -4 -30 -10 0 -5 -13
-10 -30 -10 -16 0 -30 -4 -30 -10 0 -5 -9 -10 -20 -10 -11 0 -20 -4 -20 -10 0
-5 -13 -10 -30 -10 -16 0 -30 -4 -30 -10 0 -5 -9 -10 -20 -10 -11 0 -20 -4
-20 -10 0 -5 -9 -10 -20 -10 -11 0 -20 -4 -20 -10 0 -5 -9 -10 -20 -10 -11 0
-20 -4 -20 -10 0 -5 -8 -10 -18 -10 -10 0 -24 -9 -32 -20 -8 -11 -22 -20 -32
-20 -10 0 -18 -4 -18 -10 0 -5 -9 -10 -20 -10 -11 0 -20 -4 -20 -10 0 -5 -8
-10 -18 -10 -10 0 -24 -9 -32 -20 -8 -11 -21 -20 -30 -20 -9 0 -22 -9 -30 -20
-8 -11 -21 -20 -30 -20 -9 0 -22 -9 -30 -20 -8 -11 -21 -20 -30 -20 -9 0 -22
-9 -30 -20 -8 -11 -21 -20 -28 -20 -7 0 -31 -18 -52 -40 -21 -22 -44 -40 -50
-40 -6 0 -42 -31 -80 -70 -38 -38 -74 -70 -80 -70 -14 0 -60 -46 -60 -60 0
-15 -25 -40 -40 -40 -14 0 -60 -46 -60 -60 0 -6 -22 -33 -50 -60 -27 -27 -50
-54 -50 -60 0 -7 -13 -25 -30 -40 -16 -15 -30 -33 -30 -40 0 -7 -13 -25 -30
-40 -16 -15 -30 -33 -30 -40 0 -7 -13 -25 -30 -40 -16 -15 -30 -34 -30 -42 0
-7 -9 -20 -20 -28 -11 -8 -20 -22 -20 -32 0 -10 -4 -18 -10 -18 -5 0 -10 -8
-10 -18 0 -10 -9 -24 -20 -32 -11 -8 -20 -22 -20 -32 0 -10 -4 -18 -10 -18 -5
0 -10 -9 -10 -20 0 -11 -4 -20 -10 -20 -5 0 -10 -9 -10 -20 0 -11 -4 -20 -10
-20 -5 0 -10 -9 -10 -20 0 -11 -4 -20 -10 -20 -5 0 -10 -9 -10 -20 0 -11 -4
-20 -10 -20 -5 0 -10 -9 -10 -20 0 -11 -4 -20 -10 -20 -5 0 -10 -9 -10 -20 0
-11 -4 -20 -10 -20 -5 0 -10 -13 -10 -30 0 -16 -4 -30 -10 -30 -5 0 -10 -9
-10 -20 0 -11 -4 -20 -10 -20 -5 0 -10 -13 -10 -30 0 -16 -4 -30 -10 -30 -5 0
-10 -9 -10 -20 0 -11 -4 -20 -10 -20 -5 0 -10 -18 -10 -40 0 -22 -4 -40 -10
-40 -5 0 -10 -18 -10 -40 0 -22 -4 -40 -10 -40 -5 0 -10 -18 -10 -40 0 -22 -4
-40 -10 -40 -5 0 -10 -18 -10 -40 0 -22 -4 -40 -10 -40 -6 0 -10 -27 -10 -60
0 -33 -4 -60 -10 -60 -6 0 -10 -37 -10 -90 0 -53 -4 -90 -10 -90 -6 0 -10
-130 -10 -370 0 -240 4 -370 10 -370 6 0 10 -33 10 -80 0 -47 4 -80 10 -80 6
0 10 -27 10 -60 0 -33 4 -60 10 -60 6 0 10 -22 10 -50 0 -27 5 -50 10 -50 6 0
10 -18 10 -40 0 -22 5 -40 10 -40 6 0 10 -18 10 -40 0 -22 5 -40 10 -40 6 0
10 -9 10 -20 0 -11 5 -20 10 -20 6 0 10 -18 10 -40 0 -22 5 -40 10 -40 6 0 10
-9 10 -20 0 -11 5 -20 10 -20 6 0 10 -13 10 -30 0 -16 5 -30 10 -30 6 0 10
-13 10 -30 0 -16 5 -30 10 -30 6 0 10 -9 10 -20 0 -11 5 -20 10 -20 6 0 10 -9
10 -20 0 -11 5 -20 10 -20 6 0 10 -13 10 -30 0 -16 5 -30 10 -30 6 0 10 -9 10
-20 0 -11 5 -20 10 -20 6 0 10 -9 10 -20 0 -11 5 -20 10 -20 6 0 10 -9 10 -20
0 -11 5 -20 10 -20 6 0 10 -8 10 -18 0 -10 9 -24 20 -32 11 -8 20 -22 20 -32
0 -10 5 -18 10 -18 6 0 10 -9 10 -20 0 -11 5 -20 10 -20 6 0 10 -8 10 -18 0
-10 9 -24 20 -32 11 -8 20 -21 20 -30 0 -9 9 -22 20 -30 11 -8 20 -21 20 -28
0 -8 14 -27 30 -42 17 -15 30 -34 30 -42 0 -7 9 -20 20 -28 11 -8 20 -20 20
-28 0 -7 28 -40 61 -73 34 -33 59 -63 55 -66 -3 -3 -15 4 -26 17 -11 13 -23
21 -26 17 -8 -7 41 -57 56 -57 14 0 103 -90 96 -97 -3 -3 -19 9 -36 27 -17 18
-33 30 -36 27 -3 -3 24 -36 61 -73 48 -47 70 -63 75 -54 6 9 18 3 44 -23 42
-42 43 -47 16 -47 -24 0 -25 -6 -3 -28 12 -12 18 -13 21 -4 5 17 22 15 22 -4
0 -20 24 -44 44 -44 9 0 16 -4 16 -10 0 -5 -4 -10 -10 -10 -5 0 -10 -4 -10
-10 0 -5 7 -10 15 -10 9 0 51 -36 95 -80 44 -44 84 -80 91 -80 6 0 24 -13 39
-30 15 -16 34 -30 42 -30 7 0 20 -9 28 -20 8 -11 21 -20 30 -20 9 0 22 -9 30
-20 8 -11 21 -20 30 -20 9 0 22 -9 30 -20 8 -11 21 -20 30 -20 9 0 22 -9 30
-20 8 -11 22 -20 32 -20 10 0 18 -4 18 -10 0 -5 7 -10 16 -10 20 0 44 -24 44
-44 0 -13 -12 -16 -60 -16 -33 0 -60 -4 -60 -10 0 -6 -30 -10 -70 -10 -40 0
-70 -4 -70 -10 0 -6 -70 -10 -190 -10 -120 0 -190 4 -190 10 0 6 -30 10 -70
10 -40 0 -70 4 -70 10 0 6 -22 10 -50 10 -27 0 -50 5 -50 10 0 6 -18 10 -40
10 -22 0 -40 5 -40 10 0 6 -18 10 -40 10 -22 0 -40 5 -40 10 0 6 -13 10 -30
10 -16 0 -30 5 -30 10 0 6 -13 10 -30 10 -16 0 -30 5 -30 10 0 6 -9 10 -20 10
-11 0 -20 5 -20 10 0 6 -13 10 -30 10 -16 0 -30 5 -30 10 0 6 -9 10 -20 10
-11 0 -20 5 -20 10 0 6 -9 10 -20 10 -11 0 -20 5 -20 10 0 6 -9 10 -20 10 -17
0 -20 -7 -20 -39 0 -22 5 -42 13 -44 9 -4 8 -8 -3 -17 -11 -9 -12 -13 -2 -17
8 -3 12 -37 12 -119 0 -109 -1 -116 -25 -139 -20 -21 -34 -25 -80 -25 l-55 0
0 -346 c0 -363 1 -374 44 -374 9 0 16 -4 16 -10 0 -5 14 -10 30 -10 l30 0 0
-400 c0 -260 4 -400 10 -400 6 0 10 -22 10 -48 0 -36 -5 -51 -20 -62 -17 -12
-20 -26 -20 -88 0 -64 3 -76 25 -97 13 -14 31 -25 40 -25 8 0 15 -4 15 -10 0
-5 16 -10 35 -10 29 0 44 9 80 45 42 41 45 48 45 95 0 48 -3 54 -50 100 l-50
49 0 475 c0 311 3 476 10 476 6 0 10 9 10 20 0 11 5 20 10 20 6 0 10 100 10
280 l0 280 30 0 30 0 0 -250 c0 -160 4 -250 10 -250 6 0 10 -90 10 -250 l0
-250 30 0 30 0 0 490 0 490 40 0 c22 0 40 -4 40 -10 0 -5 9 -10 20 -10 20 0
20 -7 20 -740 0 -487 3 -740 10 -740 6 0 10 -7 10 -16 0 -20 24 -44 44 -44 9
0 16 -4 16 -10 0 -5 18 -10 40 -10 22 0 40 5 40 10 0 6 7 10 15 10 25 0 65 46
65 75 0 14 5 25 10 25 6 0 10 30 10 70 0 40 -4 70 -10 70 -7 0 -10 158 -10
455 l0 456 25 24 c13 14 29 25 35 25 33 0 40 28 40 164 l0 136 30 0 30 0 0
-270 0 -270 30 0 30 0 0 266 c0 217 3 268 14 280 9 9 35 14 70 14 l56 0 0
-315 0 -316 35 -34 c26 -27 43 -35 70 -35 19 0 35 -4 35 -10 0 -5 14 -10 30
-10 l30 0 0 -350 c0 -227 -4 -350 -10 -350 -5 0 -10 -13 -10 -30 0 -16 -4 -30
-10 -30 -5 0 -10 -13 -10 -30 0 -16 -4 -30 -10 -30 -5 0 -10 -9 -10 -20 0 -11
-4 -20 -10 -20 -5 0 -10 -13 -10 -30 0 -16 -4 -30 -10 -30 -6 0 -10 -37 -10
-90 0 -53 4 -90 10 -90 6 0 10 -9 10 -20 0 -11 5 -20 10 -20 6 0 10 -7 10 -16
0 -20 24 -44 44 -44 9 0 16 -4 16 -10 0 -6 29 -10 68 -10 56 0 70 3 82 20 8
11 22 20 32 20 11 0 18 7 18 20 0 11 5 20 10 20 6 0 10 9 10 20 0 11 5 20 10
20 6 0 10 37 10 90 0 53 -4 90 -10 90 -5 0 -10 14 -10 30 0 17 -4 30 -10 30
-5 0 -10 9 -10 20 0 11 -4 20 -10 20 -5 0 -10 9 -10 20 0 11 -4 20 -10 20 -7
0 -10 173 -10 500 0 327 -3 500 -10 500 -6 0 -10 87 -10 240 l0 240 30 0 c17
0 30 5 30 10 0 6 18 10 40 10 22 0 40 5 40 10 0 6 9 10 20 10 20 0 20 -7 20
-290 0 -187 4 -290 10 -290 14 0 12 -37 -2 -44 -10 -5 -10 -7 0 -12 14 -7 17
-104 2 -104 -6 0 -10 -42 -10 -106 0 -109 8 -134 44 -134 9 0 16 -4 16 -10 0
-5 18 -10 40 -10 22 0 40 5 40 10 0 6 7 10 16 10 34 0 44 26 44 114 0 51 -4
86 -10 86 -7 0 -10 148 -10 425 l0 426 25 24 c13 14 31 25 40 25 13 0 15 -29
15 -226 0 -230 4 -254 40 -254 39 0 40 -14 40 -450 l0 -421 35 -34 c29 -30 41
-35 80 -35 25 0 45 5 45 10 0 6 7 10 16 10 45 0 44 -10 44 694 l0 666 50 0
c28 0 50 -4 50 -10 0 -5 14 -10 30 -10 17 0 30 -4 30 -10 0 -5 23 -10 50 -10
l50 0 0 -140 c0 -87 4 -140 10 -140 6 0 10 -83 10 -230 0 -147 4 -230 10 -230
6 0 10 -83 10 -230 0 -147 4 -230 10 -230 6 0 10 -73 10 -200 0 -127 -4 -200
-10 -200 -5 0 -10 -9 -10 -20 0 -11 -4 -20 -10 -20 -5 0 -10 -22 -10 -50 0
-27 5 -50 10 -50 6 0 10 -7 10 -16 0 -29 27 -44 80 -44 41 0 56 5 75 25 21 20
25 34 25 85 0 63 -13 90 -44 90 -14 0 -16 20 -16 150 0 93 -4 150 -10 150 -6
0 -10 93 -10 260 0 167 -4 260 -10 260 -6 0 -10 83 -10 230 0 147 -4 230 -10
230 -6 0 -10 57 -10 150 l0 150 80 0 80 0 0 -256 c0 -208 3 -258 14 -270 8 -8
20 -14 26 -14 33 0 40 -28 40 -164 0 -84 4 -136 10 -136 6 0 10 -97 10 -270 0
-173 4 -270 10 -270 6 0 10 -12 10 -26 0 -29 21 -54 44 -54 9 0 16 -4 16 -10
0 -21 70 -10 95 15 22 21 25 33 25 90 0 37 -4 65 -10 65 -5 0 -10 14 -10 30 0
17 -4 30 -10 30 -6 0 -10 60 -10 160 0 100 -4 160 -10 160 -6 0 -10 73 -10
200 0 127 -4 200 -10 200 -6 0 -10 93 -10 260 l0 260 110 0 110 0 0 -160 c0
-100 4 -160 10 -160 6 0 10 -53 10 -140 0 -87 4 -140 10 -140 6 0 10 -63 10
-170 0 -107 -4 -170 -10 -170 -5 0 -10 -9 -10 -20 0 -11 -4 -20 -10 -20 -5 0
-10 -9 -10 -20 0 -11 5 -20 10 -20 6 0 10 -9 10 -20 0 -11 5 -20 10 -20 6 0
10 -9 10 -20 0 -13 7 -20 20 -20 11 0 20 -4 20 -10 0 -5 14 -10 30 -10 17 0
30 5 30 10 0 6 9 10 20 10 13 0 20 7 20 20 0 11 5 20 10 20 6 0 10 21 10 46 0
40 -5 50 -40 84 l-40 38 0 136 c0 84 -4 136 -10 136 -6 0 -10 63 -10 170 0
107 -4 170 -10 170 -6 0 -10 57 -10 150 l0 150 40 0 c33 0 40 -3 40 -20 0 -11
5 -20 10 -20 6 0 10 -30 10 -70 0 -40 4 -70 10 -70 6 0 10 -27 10 -60 0 -33 4
-60 10 -60 6 0 10 -27 10 -60 0 -33 4 -60 10 -60 6 0 10 -30 10 -70 0 -40 4
-70 10 -70 6 0 10 -30 10 -70 0 -40 4 -70 10 -70 6 0 10 -22 10 -50 0 -27 5
-50 10 -50 6 0 10 -27 10 -60 0 -33 4 -60 10 -60 6 0 10 -22 10 -50 0 -27 5
-50 10 -50 6 0 10 -13 10 -30 0 -16 -4 -30 -10 -30 -6 0 -10 -27 -10 -60 0
-33 4 -60 10 -60 6 0 10 -9 10 -20 0 -13 7 -20 20 -20 11 0 20 -4 20 -10 0 -5
14 -10 30 -10 17 0 30 5 30 10 0 6 7 10 16 10 31 0 44 27 44 92 0 52 -4 66
-20 78 -15 11 -20 26 -20 62 0 26 -4 48 -10 48 -6 0 -10 37 -10 90 0 53 -4 90
-10 90 -6 0 -10 33 -10 80 0 47 -4 80 -10 80 -5 0 -10 18 -10 40 0 22 5 40 10
40 6 0 10 -4 10 -10 0 -5 9 -10 20 -10 11 0 20 -4 20 -10 0 -5 9 -10 20 -10
11 0 20 -4 20 -10 0 -5 23 -10 50 -10 28 0 50 5 50 10 0 6 9 10 20 10 11 0 20
5 20 10 0 6 7 10 15 10 25 0 65 46 65 75 0 14 5 25 10 25 6 0 10 18 10 40 0
44 8 50 30 20 8 -11 22 -20 32 -20 10 0 18 -7 18 -16 0 -18 23 -44 40 -44 15
0 40 -25 40 -40 0 -6 27 -38 60 -70 33 -32 60 -64 60 -70 0 -7 14 -25 30 -40
17 -15 30 -35 30 -44 0 -9 5 -16 10 -16 6 0 10 -11 10 -25 0 -34 61 -95 94
-95 13 0 27 -6 30 -12 5 -10 7 -10 12 -1 3 7 19 13 35 13 16 0 29 5 29 10 0 6
9 10 20 10 13 0 20 7 20 20 0 11 5 20 10 20 6 0 10 28 10 65 0 62 -2 68 -35
100 -31 32 -40 35 -90 35 -43 0 -55 3 -55 16 0 8 -23 37 -50 64 -28 27 -50 54
-50 60 0 6 -58 69 -130 140 -71 71 -130 136 -130 145 0 8 -4 15 -10 15 -5 0
-10 8 -10 18 0 10 -9 24 -20 32 -11 8 -20 22 -20 32 0 10 -4 18 -10 18 -5 0
-10 8 -10 18 0 10 -9 24 -20 32 -11 8 -20 21 -20 30 0 9 -9 22 -20 30 -11 8
-20 22 -20 32 0 10 -4 18 -10 18 -5 0 -10 13 -10 29 0 16 -6 31 -12 33 -20 7
17 38 44 38 13 0 30 9 38 20 10 14 26 20 52 20 36 0 38 -2 38 -30 0 -16 5 -30
10 -30 6 0 10 -8 10 -18 0 -10 9 -24 20 -32 11 -8 20 -20 20 -27 0 -16 105
-123 120 -123 20 0 180 -169 180 -190 0 -24 42 -70 65 -70 8 0 15 -4 15 -10 0
-5 9 -10 20 -10 11 0 20 5 20 10 0 6 11 10 25 10 16 0 39 13 60 35 33 33 35
38 35 105 l0 71 -90 89 c-49 49 -90 94 -90 100 0 6 -27 38 -60 70 -33 32 -60
65 -60 72 0 8 -9 20 -20 28 -11 8 -20 18 -20 22 0 4 9 8 20 8 11 0 20 5 20 10
0 6 -11 10 -25 10 -26 0 -75 40 -75 61 0 6 -9 20 -21 30 -19 16 -20 20 -6 34
20 19 34 19 54 -1 14 -13 14 -17 2 -24 -7 -5 -10 -12 -6 -17 5 -4 12 -1 18 7
8 13 10 13 18 0 6 -8 13 -11 17 -8 4 4 -8 21 -25 37 l-32 30 25 26 c14 14 30
25 37 25 6 0 24 14 39 30 15 17 33 30 40 30 7 0 25 14 40 30 15 17 35 30 43
30 9 0 18 6 20 13 4 9 8 8 16 -3 5 -8 13 -11 18 -7 4 5 1 12 -6 17 -11 6 -8
14 14 35 21 22 29 25 35 14 5 -7 12 -10 17 -6 4 5 1 12 -6 16 -10 7 -3 20 32
55 26 25 51 46 57 46 17 0 40 26 40 44 0 9 7 16 16 16 18 0 44 24 44 40 0 7
14 25 30 40 17 15 30 33 30 40 0 6 27 38 60 70 33 32 60 65 60 72 0 8 9 20 20
28 11 8 20 22 20 32 0 11 7 18 20 18 13 0 20 7 20 18 0 10 9 24 20 32 11 8 20
20 20 28 0 16 45 62 60 62 30 0 53 -54 28 -63 -8 -2 -9 -8 -4 -13 5 -5 11 -4
13 4 7 18 43 15 43 -4 0 -9 -10 -26 -22 -37 -16 -13 -19 -21 -10 -24 6 -3 12
-13 12 -24 0 -10 5 -19 10 -19 6 0 10 9 10 20 0 11 -4 20 -10 20 -5 0 -10 5
-10 10 0 6 9 10 19 10 11 0 21 5 23 12 3 8 14 3 31 -14 31 -31 33 -43 11 -65
-13 -13 -17 -14 -24 -3 -6 9 -17 3 -45 -24 -20 -21 -34 -40 -31 -43 3 -3 19 8
35 26 34 36 41 38 41 11 0 -11 -4 -20 -10 -20 -5 0 -10 -4 -10 -10 0 -5 14
-10 30 -10 17 0 30 -4 30 -10 0 -5 16 -10 35 -10 36 0 85 -35 85 -60 0 -17 26
-40 44 -40 9 0 16 -4 16 -10 0 -5 23 -10 50 -10 28 0 50 5 50 10 0 6 8 10 18
10 10 0 24 9 32 20 8 11 22 20 32 20 11 0 18 7 18 20 0 11 5 20 10 20 6 0 10
33 10 80 0 47 -4 80 -10 80 -5 0 -10 9 -10 20 0 13 -7 20 -20 20 -11 0 -20 5
-20 10 0 6 -30 10 -70 10 l-70 0 0 40 c0 22 -4 40 -10 40 -5 0 -10 7 -10 15 0
20 -45 65 -65 65 -8 0 -15 5 -15 10 0 6 -27 10 -60 10 -33 0 -60 4 -60 10 0 6
-7 10 -16 10 -9 0 -29 14 -44 30 -15 17 -33 30 -40 30 -6 0 -29 18 -50 40 -21
22 -44 40 -50 40 -6 0 -33 23 -60 50 -27 28 -56 50 -64 50 -23 0 -20 7 19 45
l34 35 126 0 c77 0 125 4 125 10 0 6 30 10 70 10 40 0 70 -4 70 -10 0 -6 43
-10 110 -10 67 0 110 4 110 10 0 6 33 10 80 10 47 0 80 -4 80 -10 0 -6 33 -10
80 -10 47 0 80 4 80 10 0 6 33 10 80 10 47 0 80 -4 80 -10 0 -5 9 -10 20 -10
11 0 20 -4 20 -10 0 -5 14 -10 30 -10 17 0 30 5 30 10 0 6 9 10 20 10 17 0 20
7 20 45 0 59 -32 95 -85 95 -19 0 -35 -4 -35 -10 0 -6 -29 -10 -66 -10 -60 0
-68 3 -94 30 l-28 30 -344 0 c-332 0 -344 1 -358 20 -8 11 -22 20 -32 20 -10
0 -18 5 -18 10 0 6 -117 10 -330 10 -213 0 -330 4 -330 10 0 6 -9 10 -20 10
-11 0 -20 5 -20 10 0 6 -9 10 -20 10 -13 0 -20 7 -20 20 0 11 5 20 10 20 6 0
10 9 10 20 0 11 5 20 10 20 6 0 10 14 10 30 0 17 5 30 10 30 6 0 10 18 10 40
0 22 5 40 10 40 6 0 10 16 10 36 0 38 18 64 44 64 9 0 16 5 16 10 0 7 252 10
735 10 l736 0 24 25 c14 13 25 31 25 40 0 12 15 15 86 15 l85 0 49 -50 c47
-48 51 -50 104 -50 31 0 56 5 56 10 0 6 7 10 16 10 20 0 44 24 44 44 0 9 5 16
10 16 6 0 10 18 10 40 0 22 -4 40 -10 40 -5 0 -10 7 -10 15 0 9 -16 31 -35 50
-29 30 -41 35 -80 35 -25 0 -45 -4 -45 -10 0 -5 -7 -10 -16 -10 -8 0 -33 -18
-54 -40 -31 -32 -46 -40 -74 -40 -20 0 -36 5 -36 10 0 6 -13 10 -30 10 -16 0
-30 -4 -30 -10 0 -5 -13 -10 -30 -10 -16 0 -30 5 -30 10 0 6 -112 10 -316 10
l-315 0 -49 50 -49 50 -525 0 -526 0 0 -30 c0 -16 -4 -30 -10 -30 -5 0 -10
-18 -10 -40 0 -22 -4 -40 -10 -40 -5 0 -10 -22 -10 -50 0 -27 -4 -50 -10 -50
-5 0 -10 -18 -10 -40 0 -22 -4 -40 -10 -40 -5 0 -10 -13 -10 -30 0 -16 -4 -30
-10 -30 -5 0 -10 -9 -10 -20 0 -13 -7 -20 -20 -20 -11 0 -20 5 -20 10 0 6 -8
10 -18 10 -10 0 -24 9 -32 20 -8 11 -22 20 -32 20 -10 0 -18 5 -18 10 0 6 -8
10 -18 10 -10 0 -24 9 -32 20 -8 11 -22 20 -32 20 -10 0 -18 5 -18 10 0 6 -9
10 -20 10 -11 0 -20 5 -20 10 0 6 -9 10 -20 10 -11 0 -20 5 -20 10 0 6 -13 10
-29 10 -16 0 -31 5 -33 12 -5 14 -98 -75 -98 -93 0 -6 -13 -24 -30 -39 -16
-15 -30 -34 -30 -42 0 -7 -9 -20 -20 -28 -11 -8 -20 -20 -20 -28 0 -7 -31 -44
-70 -82 -38 -38 -70 -74 -70 -80 0 -14 -146 -160 -160 -160 -6 0 -42 -31 -80
-70 -50 -50 -76 -70 -95 -70 -14 0 -25 -4 -25 -10 0 -5 -13 -10 -30 -10 -16 0
-30 -4 -30 -10 0 -6 -80 -10 -220 -10 -140 0 -220 4 -220 10 0 6 -18 10 -40
10 -22 0 -40 5 -40 10 0 6 -18 10 -40 10 -22 0 -40 5 -40 10 0 6 -9 10 -20 10
-11 0 -20 5 -20 10 0 6 -13 10 -30 10 -16 0 -30 5 -30 10 0 6 -9 10 -20 10
-11 0 -20 5 -20 10 0 6 -9 10 -20 10 -11 0 -20 5 -20 10 0 6 -8 10 -18 10 -10
0 -24 9 -32 20 -8 11 -21 20 -30 20 -9 0 -22 9 -30 20 -8 11 -20 20 -27 20
-17 0 -203 186 -203 203 0 7 -9 19 -20 27 -11 8 -20 21 -20 28 0 8 -13 27 -30
42 -16 15 -30 34 -30 42 0 7 -9 20 -20 28 -11 8 -20 21 -20 30 0 9 -9 22 -20
30 -11 8 -20 22 -20 32 0 10 -4 18 -10 18 -5 0 -10 9 -10 20 0 11 -4 20 -10
20 -5 0 -10 9 -10 20 0 11 -4 20 -10 20 -5 0 -10 9 -10 20 0 11 -4 20 -10 20
-5 0 -10 14 -10 30 0 17 -4 30 -10 30 -5 0 -10 14 -10 30 0 17 -4 30 -10 30
-5 0 -10 18 -10 40 0 22 -4 40 -10 40 -5 0 -10 23 -10 50 0 28 -4 50 -10 50
-6 0 -10 87 -10 240 0 153 4 240 10 240 6 0 10 27 10 60 0 33 4 60 10 60 6 0
10 23 10 50 0 28 5 50 10 50 6 0 10 14 10 30 0 17 5 30 10 30 6 0 10 18 10 40
0 22 5 40 10 40 6 0 10 9 10 20 0 11 5 20 10 20 6 0 10 9 10 20 0 11 5 20 10
20 6 0 10 13 10 28 0 16 8 34 20 42 11 8 20 21 20 30 0 9 9 22 20 30 11 8 20
21 20 30 0 9 9 22 20 30 11 8 20 21 20 28 0 8 14 27 30 42 17 15 30 33 30 40
0 16 26 40 44 40 9 0 16 7 16 16 0 18 23 44 40 44 6 0 29 18 50 40 21 22 46
40 54 40 9 0 16 5 16 10 0 6 8 10 18 10 10 0 24 9 32 20 8 11 22 20 32 20 10
0 18 5 18 10 0 6 14 10 30 10 17 0 30 5 30 10 0 6 9 10 20 10 11 0 20 -4 20
-10 0 -5 9 -10 20 -10 11 0 20 5 20 10 0 6 -9 10 -20 10 -11 0 -20 5 -20 10 0
6 14 10 30 10 17 0 30 5 30 10 0 6 14 10 30 10 17 0 30 5 30 10 0 6 70 10 190
10 120 0 190 -4 190 -10 0 -5 -18 -10 -40 -10 -22 0 -40 -4 -40 -10 0 -6 30
-10 69 -10 46 0 71 -4 75 -12 5 -10 7 -10 12 0 7 14 44 16 44 2 0 -5 9 -10 20
-10 11 0 20 -4 20 -10 0 -14 -38 -12 -43 3 -2 6 -8 9 -12 5 -10 -9 19 -38 39
-38 9 0 16 5 16 10 0 16 50 12 67 -6 14 -13 14 -17 2 -24 -7 -5 -10 -13 -5
-17 5 -4 11 -2 13 5 7 18 23 15 23 -4 0 -9 -9 -25 -21 -35 -20 -17 -20 -19 -5
-35 9 -9 20 -13 24 -10 3 4 0 11 -8 16 -8 5 -11 12 -7 17 5 4 12 1 17 -6 7
-12 11 -11 25 3 10 9 14 20 11 24 -4 3 -11 0 -16 -8 -5 -8 -12 -11 -16 -8 -3
4 1 14 10 23 14 15 18 14 41 -9 14 -14 25 -32 25 -41 0 -18 16 -20 23 -2 2 6
8 9 12 5 4 -4 0 -15 -9 -24 -16 -15 -18 -15 -35 5 -23 27 -39 27 -63 -1 -16
-19 -21 -20 -29 -8 -8 11 -12 12 -16 3 -2 -7 -13 -13 -24 -13 -10 0 -19 -4
-19 -10 0 -5 18 -10 40 -10 22 0 40 -4 40 -10 0 -5 18 -10 40 -10 22 0 40 -4
40 -10 0 -5 9 -10 19 -10 11 0 21 -6 24 -12 2 -7 8 -9 13 -5 5 4 2 12 -6 18
-13 8 -13 10 0 19 13 9 13 11 0 19 -8 6 -11 13 -8 17 4 3 19 -6 34 -21 21 -21
24 -29 13 -35 -7 -5 -10 -13 -5 -17 5 -4 11 -2 13 5 8 20 43 15 43 -7 0 -11
-6 -21 -12 -24 -8 -2 -9 -8 -4 -13 5 -5 11 -4 13 4 9 23 23 12 23 -18 0 -23 4
-30 20 -30 13 0 20 -7 20 -20 0 -22 35 -29 42 -8 3 9 10 8 22 -5 10 -10 15
-21 12 -25 -4 -3 -11 0 -16 8 -5 8 -12 11 -15 8 -4 -4 9 -23 30 -43 20 -20 39
-34 43 -30 3 3 0 10 -8 15 -8 5 -12 12 -8 15 4 4 32 -19 63 -50 l57 -56 -22
-19 -22 -19 97 -96 c53 -53 99 -94 102 -91 3 3 -13 23 -36 45 -22 22 -41 42
-41 45 0 17 35 2 60 -24 15 -16 34 -30 40 -30 7 0 21 -10 31 -22 11 -11 22
-18 26 -15 3 4 -4 16 -16 27 -21 17 -22 21 -8 35 9 8 21 15 27 15 7 0 25 14
40 30 15 17 34 30 42 30 7 0 20 9 28 20 8 11 22 20 32 20 10 0 18 5 18 10 0 6
7 10 16 10 9 0 29 14 44 30 15 17 34 30 42 30 7 0 20 9 28 20 8 11 21 20 30
20 9 0 22 9 30 20 8 11 21 20 30 20 9 0 22 9 30 20 8 11 21 20 30 20 9 0 22 9
30 20 8 12 26 20 42 20 19 0 28 5 28 16 0 20 24 44 44 44 9 0 16 5 16 10 0 6
12 10 26 10 17 0 39 14 64 40 21 22 45 40 52 40 7 0 20 9 28 20 8 11 21 20 30
20 9 0 22 9 30 20 8 11 21 20 28 20 8 0 27 14 42 30 15 17 35 30 44 30 9 0 16
5 16 10 0 6 7 10 16 10 9 0 29 14 44 30 29 31 55 39 62 18 3 -9 10 -8 22 5 10
10 15 21 12 25 -4 3 -11 0 -16 -8 -5 -8 -12 -11 -16 -8 -10 11 22 38 46 38 12
0 35 14 50 30 15 17 33 30 40 30 7 0 25 14 40 30 15 17 34 30 42 30 7 0 20 9
28 20 8 11 22 20 32 20 10 0 18 5 18 10 0 6 9 10 20 10 15 0 20 7 20 28 0 16
-8 34 -20 42 -11 8 -20 21 -20 30 0 9 -9 22 -20 30 -11 8 -20 21 -20 30 0 9
-9 22 -20 30 -11 8 -20 21 -20 30 0 9 -9 22 -20 30 -11 8 -20 22 -20 32 0 10
-4 18 -10 18 -15 0 -12 29 4 46 8 8 21 14 28 14 8 0 20 9 28 20 8 11 22 20 32
20 10 0 18 5 18 10 0 6 8 10 18 10 10 0 24 9 32 20 8 11 22 20 32 20 10 0 18
5 18 10 0 6 9 10 20 10 11 0 20 5 20 10 0 6 8 10 18 10 10 0 24 9 32 20 8 11
22 20 32 20 10 0 18 5 18 10 0 6 9 10 19 10 11 0 22 6 25 13 5 10 7 10 12 0 7
-15 64 -18 64 -3 0 6 7 10 15 10 9 0 27 11 40 25 19 18 25 35 25 70 0 25 -4
45 -10 45 -5 0 -10 9 -10 20 0 13 -7 20 -20 20 -11 0 -20 5 -20 10 0 6 -18 10
-40 10 -22 0 -40 -4 -40 -10 0 -5 -7 -10 -16 -10 -8 0 -37 -22 -64 -50 -27
-27 -55 -50 -62 -50 -8 0 -20 -9 -28 -20 -8 -11 -21 -20 -30 -20 -9 0 -22 -9
-30 -20 -8 -11 -21 -20 -30 -20 -9 0 -22 -9 -30 -20 -8 -11 -22 -20 -32 -20
-10 0 -18 -4 -18 -10 0 -5 -9 -10 -20 -10 -11 0 -20 -4 -20 -10 0 -5 -9 -10
-20 -10 -11 0 -20 -4 -20 -10 0 -5 -9 -10 -20 -10 -11 0 -20 -4 -20 -10 0 -5
-9 -10 -20 -10 -11 0 -20 -4 -20 -10 0 -5 -4 -10 -10 -10 -5 0 -10 9 -10 20 0
11 -4 20 -10 20 -15 0 -12 29 4 46 8 8 22 14 30 14 9 0 16 5 16 10 0 6 9 10
20 10 11 0 20 5 20 10 0 6 7 10 16 10 28 0 44 27 44 74 0 25 -4 46 -10 46 -5
0 -10 7 -10 15 0 9 -11 27 -25 40 -31 32 -84 34 -105 5 -8 -11 -21 -20 -28
-20 -8 0 -27 -13 -42 -30 -15 -16 -34 -30 -40 -30 -7 0 -22 -10 -33 -22 -13
-16 -21 -19 -24 -10 -3 6 -11 12 -19 12 -8 0 -44 29 -80 65 -57 58 -63 67 -50
80 8 8 21 15 28 15 8 0 20 9 28 20 8 11 21 20 30 20 9 0 22 9 30 20 8 11 21
20 28 20 8 0 27 14 42 30 15 17 34 30 42 30 7 0 20 9 28 20 8 11 21 20 28 20
8 0 27 14 42 30 15 17 34 30 42 30 7 0 20 9 28 20 8 11 21 20 28 20 7 0 31 18
52 40 21 22 46 40 54 40 9 0 16 5 16 10 0 6 7 10 16 10 9 0 29 14 44 30 17 18
38 30 54 30 14 0 26 5 26 10 0 6 9 10 20 10 11 0 20 5 20 10 0 6 7 10 15 10
18 0 85 64 85 80 0 22 29 40 64 40 20 0 36 -4 36 -10 0 -5 14 -10 30 -10 17 0
30 5 30 10 0 6 9 10 20 10 13 0 20 7 20 20 0 11 5 20 10 20 6 0 10 20 10 45 0
62 -32 95 -90 95 -43 0 -90 -33 -90 -65 0 -8 -4 -15 -10 -15 -5 0 -10 -9 -10
-20 0 -13 -7 -20 -20 -20 -11 0 -20 5 -20 10 0 6 -18 10 -39 10 -22 0 -42 6
-45 13 -5 10 -7 10 -12 0 -3 -7 -17 -13 -30 -13 -26 0 -74 -40 -74 -62 0 -8
-9 -20 -20 -28 -11 -8 -20 -20 -20 -28 0 -16 -45 -62 -60 -62 -7 0 -29 -18
-50 -40 -21 -22 -44 -40 -50 -40 -7 0 -25 -13 -40 -30 -15 -16 -34 -30 -42
-30 -7 0 -20 -9 -28 -20 -8 -11 -21 -20 -28 -20 -8 0 -27 -13 -42 -30 -15 -16
-35 -30 -44 -30 -9 0 -16 -4 -16 -10 0 -5 -7 -10 -16 -10 -9 0 -29 -13 -44
-30 -15 -16 -35 -30 -44 -30 -9 0 -16 -4 -16 -10 0 -5 -8 -10 -18 -10 -10 0
-24 -9 -32 -20 -8 -11 -22 -20 -32 -20 -10 0 -18 -4 -18 -10 0 -5 -7 -10 -16
-10 -20 0 -44 -24 -44 -44 0 -26 -30 -18 -60 14 -15 17 -34 30 -42 30 -7 0
-20 9 -28 20 -8 11 -21 20 -30 20 -9 0 -22 9 -30 20 -8 11 -22 20 -32 20 -10
0 -18 7 -18 15 0 20 185 205 205 205 8 0 15 9 15 20 0 11 7 20 15 20 9 0 101
86 205 190 104 105 196 190 205 190 8 0 15 5 15 10 0 6 18 10 40 10 22 0 40 5
40 10 0 6 7 10 16 10 31 0 44 27 44 90 0 63 -13 90 -44 90 -9 0 -16 5 -16 10
0 6 -9 10 -20 10 -11 0 -20 -4 -20 -10 0 -5 -7 -10 -15 -10 -29 0 -85 -67 -85
-100 0 -32 -19 -60 -40 -60 -6 0 -46 -36 -90 -80 -44 -44 -84 -80 -90 -80 -6
0 -46 -36 -90 -80 -44 -44 -84 -80 -90 -80 -6 0 -55 -45 -110 -100 -55 -55
-104 -100 -110 -100 -16 0 -80 -67 -80 -85 0 -8 -4 -15 -10 -15 -5 0 -10 5
-10 10 0 6 -9 10 -20 10 -11 0 -20 5 -20 10 0 6 -9 10 -20 10 -11 0 -20 5 -20
10 0 6 -9 10 -20 10 -11 0 -20 5 -20 10 0 6 -9 10 -20 10 -11 0 -20 5 -20 10
0 6 -9 10 -20 10 -11 0 -20 5 -20 10 0 6 -7 10 -16 10 -22 0 -53 32 -36 38 6
2 12 10 12 19 0 8 18 32 40 53 22 21 40 43 40 49 0 6 43 54 95 106 69 70 101
95 120 95 14 0 25 5 25 10 0 6 11 10 25 10 18 0 49 23 110 85 47 47 85 92 85
100 0 8 5 15 10 15 6 0 10 27 10 60 0 33 -4 60 -10 60 -5 0 -10 7 -10 15 0 9
-11 27 -25 40 -13 14 -31 25 -40 25 -8 0 -15 5 -15 10 0 6 -22 10 -48 10 -36
0 -51 -5 -62 -20 -8 -11 -22 -20 -32 -20 -10 0 -18 -7 -18 -16 0 -18 -23 -44
-40 -44 -16 0 -80 -67 -80 -85 0 -8 -4 -15 -10 -15 -6 0 -10 -27 -10 -60 0
-33 -4 -60 -10 -60 -5 0 -10 -7 -10 -16 0 -8 -22 -37 -50 -64 -27 -27 -50 -54
-50 -59 0 -6 -52 -63 -115 -126 -103 -103 -118 -115 -150 -115 -19 0 -35 5
-35 10 0 6 -13 10 -30 10 -16 0 -30 5 -30 10 0 6 -9 10 -20 10 -16 0 -20 7
-20 30 0 17 5 30 10 30 6 0 10 14 10 30 0 17 5 30 10 30 6 0 10 18 10 40 0 22
5 40 10 40 6 0 10 18 10 40 0 22 5 40 10 40 6 0 10 18 10 40 0 22 5 40 10 40
6 0 10 14 10 30 0 17 5 30 10 30 6 0 10 12 10 26 0 16 12 37 30 54 17 15 30
33 30 40 0 6 27 38 60 70 42 42 60 66 60 84 0 15 5 26 10 26 6 0 10 16 10 36
0 27 7 43 30 64 17 15 30 33 30 39 0 6 47 58 105 116 87 87 110 105 135 105
22 0 41 10 65 35 29 28 35 42 35 75 0 43 -33 90 -65 90 -8 0 -15 5 -15 10 0 6
-13 10 -30 10 -16 0 -30 -4 -30 -10 0 -5 -7 -10 -16 -10 -20 0 -44 -24 -44
-44 0 -9 -4 -16 -10 -16 -5 0 -10 -18 -10 -40 0 -22 -4 -40 -10 -40 -5 0 -10
-7 -10 -15 0 -9 -36 -51 -80 -95 -44 -44 -80 -86 -80 -95 0 -8 -7 -15 -15 -15
-18 0 -65 -44 -65 -60 0 -15 -25 -40 -40 -40 -6 0 -29 -18 -50 -40 -21 -22
-46 -40 -54 -40 -9 0 -16 -7 -16 -16 0 -9 -13 -29 -30 -44 -18 -17 -30 -38
-30 -54 0 -14 -4 -26 -10 -26 -5 0 -10 -18 -10 -40 0 -22 -4 -40 -10 -40 -5 0
-10 -13 -10 -30 0 -16 -4 -30 -10 -30 -5 0 -10 -13 -10 -30 0 -16 -4 -30 -10
-30 -5 0 -10 -9 -10 -20 0 -11 -4 -20 -10 -20 -5 0 -10 -13 -10 -30 0 -16 -4
-30 -10 -30 -5 0 -10 -9 -10 -20 0 -11 -4 -20 -10 -20 -5 0 -10 -9 -10 -20 0
-11 -4 -20 -10 -20 -5 0 -10 -9 -10 -20 0 -11 -4 -20 -10 -20 -5 0 -10 -13
-10 -30 0 -16 -4 -30 -10 -30 -5 0 -10 -9 -10 -20 0 -11 -4 -20 -10 -20 -5 0
-10 -9 -10 -20 0 -11 -4 -20 -10 -20 -5 0 -10 5 -10 10 0 6 -18 10 -40 10
l-40 0 0 40 c0 22 5 40 10 40 6 0 10 30 10 70 0 40 4 70 10 70 6 0 10 40 10
100 0 60 4 100 10 100 6 0 10 27 10 60 0 33 4 60 10 60 6 0 10 30 10 70 0 40
4 70 10 70 6 0 10 27 10 60 0 33 4 60 10 60 6 0 10 30 10 70 0 40 4 70 10 70
6 0 10 30 10 70 0 40 4 70 10 70 6 0 10 30 10 70 0 40 4 70 10 70 6 0 10 27
10 60 0 33 4 60 10 60 6 0 10 30 10 70 0 40 4 70 10 70 6 0 10 25 10 55 0 46
-4 60 -25 80 -42 43 -135 29 -135 -19 0 -9 -4 -16 -10 -16 -6 0 -10 -30 -10
-70 0 -40 -4 -70 -10 -70 -6 0 -10 -27 -10 -60 0 -33 -4 -60 -10 -60 -6 0 -10
-37 -10 -90 0 -53 -4 -90 -10 -90 -6 0 -10 -33 -10 -80 0 -47 -4 -80 -10 -80
-6 0 -10 -37 -10 -90 0 -53 -4 -90 -10 -90 -6 0 -10 -37 -10 -90 0 -53 -4 -90
-10 -90 -6 0 -10 -30 -10 -70 0 -40 -4 -70 -10 -70 -6 0 -10 -26 -10 -58 0
-46 -4 -60 -20 -72 -16 -12 -20 -26 -20 -72 0 -32 -4 -58 -10 -58 -6 0 -10
-27 -10 -60 0 -33 -4 -60 -10 -60 -5 0 -10 -13 -10 -30 l0 -30 -110 0 -110 0
0 96 c0 71 -4 99 -15 110 -13 14 -17 14 -30 0 -8 -8 -15 -22 -15 -30 0 -9 -4
-16 -10 -16 -6 0 -10 -30 -10 -70 l0 -70 -70 0 -70 0 0 140 c0 87 4 140 10
140 6 0 10 93 10 260 0 167 4 260 10 260 6 0 10 70 10 190 0 120 4 190 10 190
6 0 10 63 10 170 0 107 4 170 10 170 6 0 10 63 10 170 0 107 4 170 10 170 6 0
10 53 10 140 0 87 4 140 10 140 6 0 10 27 10 60 0 33 4 60 10 60 6 0 10 8 10
18 0 10 9 24 20 32 11 8 20 22 20 32 0 10 5 18 10 18 6 0 10 30 10 70 0 40 -4
70 -10 70 -5 0 -10 7 -10 16 0 20 -24 44 -44 44 -9 0 -16 5 -16 10 0 6 -25 10
-57 9 -48 0 -62 -4 -80 -24z m977 -4855 c0 -22 16 -27 22 -8 3 8 14 2 32 -15
24 -25 26 -29 12 -43 -14 -14 -19 -12 -51 20 -34 34 -46 66 -25 66 6 0 10 -9
10 -20z m46 -1574 c8 -8 14 -21 14 -28 0 -8 9 -20 20 -28 34 -24 24 -56 -35
-115 -30 -30 -61 -55 -70 -55 -21 0 -19 9 7 32 18 15 20 21 9 28 -11 6 -8 14
14 35 21 22 29 25 35 14 5 -7 12 -10 17 -6 4 5 1 12 -7 18 -13 8 -13 10 -1 18
12 8 12 12 -3 26 -9 10 -20 14 -24 11 -3 -4 0 -11 7 -15 11 -7 6 -17 -22 -45
-40 -40 -67 -46 -67 -16 0 11 -4 20 -10 20 -15 0 -12 -29 4 -46 8 -8 22 -14
30 -14 22 0 20 -9 -6 -32 -18 -15 -20 -21 -9 -28 11 -6 8 -13 -12 -34 -14 -14
-33 -26 -42 -26 -8 0 -15 -4 -15 -10 0 -16 -90 -12 -106 5 -14 13 -14 17 1 31
9 9 19 13 23 10 3 -4 0 -11 -8 -16 -8 -5 -11 -12 -8 -16 4 -3 15 2 25 12 13
12 14 19 5 22 -26 8 -9 36 68 112 44 44 80 86 80 95 0 8 8 15 18 15 10 0 24 9
32 20 17 24 18 24 36 6z m-326 -326 c0 -11 5 -20 10 -20 6 0 10 5 10 10 0 6
18 10 40 10 22 0 40 -4 40 -10 0 -5 -9 -10 -20 -10 -11 0 -20 -4 -20 -10 0 -5
-13 -10 -30 -10 -16 0 -30 -4 -30 -10 0 -5 -18 -10 -40 -10 -22 0 -40 -4 -40
-10 0 -5 -4 -10 -10 -10 -15 0 -12 29 4 46 18 17 43 18 49 2 2 -7 8 -9 13 -5
5 4 2 12 -5 16 -12 8 -12 11 0 25 19 21 29 20 29 -4z m-2360 -1070 c0 -5 -4
-10 -10 -10 -5 0 -10 5 -10 10 0 6 5 10 10 10 6 0 10 -4 10 -10z m77 -76 c14
-14 23 -28 20 -31 -6 -5 -57 41 -57 52 0 11 12 4 37 -21z m2563 -714 c0 -22 5
-40 10 -40 6 0 10 -18 10 -40 0 -22 5 -40 10 -40 6 0 10 -22 10 -50 0 -27 5
-50 10 -50 21 0 9 -32 -25 -66 -31 -31 -37 -33 -50 -20 -8 8 -15 26 -15 40 0
14 -4 26 -10 26 -5 0 -10 23 -10 50 0 28 -4 50 -10 50 -6 0 -10 27 -10 60 0
33 -4 60 -10 60 -14 0 -12 28 3 45 6 8 29 14 50 15 37 0 37 0 37 -40z m186 26
c8 -8 14 -21 14 -28 0 -8 9 -20 20 -28 11 -8 20 -21 20 -30 0 -9 9 -22 20 -30
11 -8 20 -21 20 -30 0 -9 9 -22 20 -30 11 -8 20 -21 20 -30 0 -9 9 -22 20 -30
28 -20 25 -30 -10 -30 -16 0 -30 5 -30 10 0 6 -8 10 -18 10 -10 0 -24 9 -32
20 -8 11 -22 20 -32 20 -15 0 -18 9 -18 50 0 28 -4 50 -10 50 -5 0 -10 14 -10
30 0 17 -4 30 -10 30 -5 0 -10 14 -10 30 0 34 5 37 26 16z"/>
<path d="M8290 5954 c0 -10 31 -36 37 -31 3 3 -2 13 -10 22 -16 15 -27 19 -27
9z"/>
<path d="M8241 4324 c-18 -21 -6 -30 14 -11 8 9 15 18 15 21 0 11 -15 5 -29
-10z"/>
<path d="M8150 4242 c0 -10 -9 -24 -20 -32 -22 -16 -27 -46 -7 -53 9 -4 8 -8
-3 -16 -8 -5 -11 -13 -8 -17 4 -3 15 2 25 12 13 12 14 19 5 22 -17 5 -15 30 4
49 13 14 17 14 24 2 5 -7 13 -10 17 -5 4 5 2 11 -4 13 -7 3 -13 13 -13 24 0
10 -4 19 -10 19 -5 0 -10 -8 -10 -18z"/>
<path d="M2363 10765 c-17 -18 -19 -1845 -3 -1845 6 0 10 -132 10 -376 0 -442
1 -437 -79 -355 -27 28 -55 51 -61 51 -7 0 -25 14 -40 30 -15 17 -33 30 -40
30 -6 0 -29 18 -50 40 -21 22 -44 40 -50 40 -7 0 -25 14 -40 30 -15 17 -33 30
-39 30 -22 0 -81 69 -81 95 0 14 -4 25 -10 25 -5 0 -10 7 -10 15 0 9 -16 31
-35 50 -26 27 -43 35 -70 35 -19 0 -35 -4 -35 -10 0 -5 -13 -10 -30 -10 -16 0
-30 -4 -30 -10 0 -5 -7 -10 -15 -10 -20 0 -85 65 -85 85 0 8 -4 15 -10 15 -5
0 -10 9 -10 20 0 11 -4 20 -10 20 -5 0 -10 7 -10 16 0 30 -27 44 -84 44 -49 0
-56 -2 -56 -20 0 -11 -4 -20 -10 -20 -5 0 -10 -25 -10 -56 0 -62 14 -84 53
-84 14 0 28 -6 31 -12 5 -10 7 -10 12 0 9 19 58 14 74 -8 8 -11 22 -20 32 -20
10 0 18 -4 18 -10 0 -5 9 -10 20 -10 18 0 20 -7 20 -60 0 -33 4 -60 10 -60 6
0 10 -7 10 -16 0 -20 24 -44 44 -44 9 0 16 -4 16 -10 0 -6 29 -10 68 -10 56 0
70 -3 82 -20 8 -11 21 -20 28 -20 7 0 31 -18 52 -40 21 -22 44 -40 50 -40 7 0
25 -13 40 -30 15 -16 33 -30 40 -30 7 0 25 -13 40 -30 15 -16 33 -30 40 -30 7
0 25 -13 40 -30 15 -16 33 -30 40 -30 6 0 29 -18 50 -40 21 -22 46 -40 54 -40
12 0 16 -11 16 -50 0 -27 5 -50 10 -50 6 0 10 -73 10 -200 0 -177 -2 -200 -16
-200 -9 0 -29 14 -44 30 -15 17 -35 30 -44 30 -9 0 -16 5 -16 10 0 6 -9 10
-20 10 -11 0 -20 5 -20 10 0 6 -9 10 -20 10 -13 0 -20 7 -20 20 0 13 -7 20
-20 20 -11 0 -20 5 -20 10 0 6 -13 10 -30 10 -16 0 -30 -4 -30 -10 0 -5 -7
-10 -16 -10 -48 0 -62 -93 -19 -135 18 -19 35 -25 70 -25 38 0 45 -3 45 -20 0
-12 7 -20 16 -20 8 0 33 -18 54 -40 21 -22 46 -40 54 -40 9 0 16 -4 16 -10 0
-5 7 -10 15 -10 29 0 65 -47 65 -85 0 -28 -4 -35 -20 -35 -11 0 -20 5 -20 10
0 6 -18 10 -40 10 -22 0 -40 5 -40 10 0 6 -43 10 -110 10 -67 0 -110 4 -110
10 0 6 -9 10 -20 10 -11 0 -20 5 -20 10 0 6 -9 10 -20 10 -11 0 -20 5 -20 10
0 6 -9 10 -20 10 -11 0 -20 5 -20 10 0 6 -9 10 -20 10 -11 0 -20 5 -20 10 0 6
-9 10 -20 10 -11 0 -20 5 -20 10 0 6 -9 10 -20 10 -11 0 -20 5 -20 10 0 6 -9
10 -20 10 -11 0 -20 5 -20 10 0 6 -9 10 -20 10 -11 0 -20 5 -20 10 0 6 -8 10
-18 10 -10 0 -24 9 -32 20 -8 11 -20 20 -28 20 -24 0 -42 28 -42 64 0 20 -4
36 -10 36 -5 0 -10 14 -10 30 0 23 -4 30 -20 30 -11 0 -20 5 -20 10 0 6 -9 10
-20 10 -11 0 -20 5 -20 10 0 6 -13 10 -30 10 -16 0 -30 -4 -30 -10 0 -5 -9
-10 -20 -10 -11 0 -20 -4 -20 -10 0 -5 -9 -10 -20 -10 -13 0 -20 -7 -20 -20 0
-11 -4 -20 -10 -20 -6 0 -10 -28 -10 -65 0 -62 2 -68 35 -100 32 -33 38 -35
100 -35 37 0 65 -4 65 -10 0 -5 8 -10 18 -10 10 0 24 -9 32 -20 8 -11 22 -20
32 -20 10 0 18 -4 18 -10 0 -5 9 -10 20 -10 11 0 20 -4 20 -10 0 -5 9 -10 20
-10 11 0 20 -4 20 -10 0 -5 8 -10 18 -10 10 0 24 -9 32 -20 8 -11 22 -20 32
-20 10 0 18 -4 18 -10 0 -5 9 -10 20 -10 11 0 20 -4 20 -10 0 -5 7 -10 15 -10
25 0 65 -46 65 -75 0 -17 5 -25 18 -25 10 0 24 -9 32 -20 8 -11 21 -20 30 -20
9 0 22 -9 30 -20 8 -11 22 -20 32 -20 10 0 18 -4 18 -10 0 -5 18 -10 40 -10
22 0 40 -4 40 -10 0 -6 40 -10 100 -10 l100 0 0 -60 0 -60 -128 0 c-116 0
-129 -2 -142 -20 -8 -11 -22 -20 -32 -20 -10 0 -18 -7 -18 -16 0 -41 -18 -44
-274 -44 -157 0 -246 4 -246 10 0 6 -35 10 -85 10 l-86 0 -79 80 c-58 58 -86
80 -105 80 -14 0 -25 5 -25 10 0 6 -37 10 -90 10 -53 0 -90 -4 -90 -10 0 -5
-11 -10 -25 -10 -33 0 -75 -42 -75 -75 0 -14 -4 -25 -10 -25 -5 0 -10 -13 -10
-30 0 -16 5 -30 10 -30 6 0 10 -7 10 -15 0 -9 11 -27 25 -40 23 -24 29 -25
167 -25 132 0 145 -2 158 -20 8 -12 26 -20 42 -20 15 0 28 -4 28 -10 0 -6 40
-10 100 -10 l100 0 0 -50 c0 -27 5 -50 10 -50 6 0 10 -9 10 -20 0 -11 5 -20
10 -20 6 0 10 -9 10 -20 0 -13 7 -20 20 -20 11 0 20 -4 20 -10 0 -5 9 -10 20
-10 11 0 20 -4 20 -10 0 -6 100 -10 280 -10 180 0 280 -4 280 -10 0 -6 27 -10
60 -10 l60 0 0 -30 c0 -16 -4 -30 -10 -30 -5 0 -10 -22 -10 -50 0 -27 -4 -50
-10 -50 -5 0 -10 -7 -10 -16 0 -22 -32 -53 -38 -36 -3 9 -88 12 -373 12 -239
0 -369 4 -369 10 0 6 -127 10 -360 10 -233 0 -360 -4 -360 -10 0 -5 -9 -10
-20 -10 -16 0 -20 -7 -20 -30 0 -16 -4 -30 -10 -30 -5 0 -10 7 -10 15 0 20
-45 65 -65 65 -8 0 -15 5 -15 10 0 6 -9 10 -20 10 -11 0 -20 -4 -20 -10 0 -5
-7 -10 -15 -10 -29 0 -65 -47 -65 -85 0 -19 5 -35 10 -35 6 0 10 -9 10 -20 0
-13 7 -20 20 -20 11 0 20 -4 20 -10 0 -5 14 -10 30 -10 17 0 30 5 30 10 0 6 7
10 16 10 9 0 29 14 44 30 33 35 40 37 40 10 0 -13 7 -20 20 -20 11 0 20 -4 20
-10 0 -6 82 -10 226 -10 235 0 254 -3 254 -44 0 -9 5 -16 10 -16 6 0 10 -9 10
-20 0 -19 7 -20 210 -20 203 0 210 -1 210 -20 0 -11 5 -20 10 -20 6 0 10 -13
10 -30 0 -16 5 -30 10 -30 6 0 10 -9 10 -20 0 -13 7 -20 20 -20 11 0 20 -4 20
-10 0 -6 83 -10 230 -10 l230 0 0 -150 0 -150 -216 0 c-222 0 -244 4 -244 42
0 8 -9 20 -20 28 -11 8 -20 22 -20 32 0 11 -7 18 -18 18 -10 0 -24 9 -32 20
-8 12 -26 20 -42 20 -15 0 -28 5 -28 10 0 6 -27 10 -60 10 -33 0 -60 -4 -60
-10 0 -5 -9 -10 -20 -10 -11 0 -20 -4 -20 -10 0 -5 -7 -10 -16 -10 -19 0 -44
-24 -44 -42 0 -8 -9 -20 -20 -28 -15 -11 -20 -26 -20 -61 0 -28 -5 -50 -12
-53 -10 -5 -10 -7 0 -12 6 -3 12 -23 12 -45 0 -21 5 -39 10 -39 6 0 10 -7 10
-15 0 -20 85 -105 105 -105 8 0 15 -4 15 -10 0 -6 30 -10 70 -10 40 0 70 4 70
10 0 6 9 10 20 10 11 0 20 5 20 10 0 6 9 10 20 10 11 0 20 5 20 10 0 6 117 10
330 10 l330 0 0 -180 0 -180 -276 0 -276 0 -38 -40 -38 -40 -156 0 c-97 0
-156 4 -156 10 0 6 -113 10 -320 10 -207 0 -320 4 -320 10 0 6 -9 10 -20 10
-11 0 -20 5 -20 10 0 6 -28 10 -65 10 -57 0 -69 -3 -90 -25 -14 -13 -25 -31
-25 -40 0 -8 -4 -15 -10 -15 -6 0 -10 -27 -10 -60 0 -33 4 -60 10 -60 6 0 10
-7 10 -16 0 -20 24 -44 44 -44 9 0 16 -4 16 -10 0 -5 25 -10 56 -10 49 0 59 4
84 30 l28 30 226 0 c144 0 226 4 226 10 0 16 277 13 283 -2 4 -10 8 -9 17 2 9
11 13 12 17 3 2 -7 13 -13 24 -13 11 0 19 -7 19 -16 0 -42 14 -44 324 -44
l296 0 0 -40 0 -40 -339 0 c-262 0 -341 3 -345 13 -5 10 -7 10 -12 0 -3 -7
-12 -13 -21 -13 -37 0 -57 -57 -29 -86 17 -16 126 -20 126 -4 0 6 9 10 20 10
11 0 20 -4 20 -10 0 -6 87 -10 240 -10 153 0 240 4 240 10 0 14 37 12 44 -2 5
-10 7 -10 12 0 8 16 32 15 50 -2 9 -10 14 -37 14 -80 l0 -66 -255 0 -256 0
-24 -25 c-14 -13 -25 -29 -25 -35 0 -22 -29 -40 -64 -40 -20 0 -36 -4 -36 -10
0 -6 -92 -10 -256 -10 l-256 0 -28 -30 c-26 -28 -32 -30 -104 -30 -44 0 -76 4
-76 10 0 6 -16 10 -35 10 -53 0 -85 -36 -85 -95 0 -38 3 -45 20 -45 11 0 20
-4 20 -10 0 -18 55 -11 70 10 13 18 26 20 122 20 65 0 108 -4 108 -10 0 -5 18
-10 40 -10 22 0 40 5 40 10 0 6 120 10 340 10 220 0 340 4 340 10 0 6 87 10
240 10 l240 0 0 -65 c0 -62 -2 -68 -35 -100 -19 -19 -41 -35 -50 -35 -8 0 -15
-4 -15 -10 0 -5 -9 -10 -20 -10 -11 0 -20 -4 -20 -10 0 -5 -8 -10 -18 -10 -10
0 -24 -9 -32 -20 -8 -11 -22 -20 -32 -20 -10 0 -18 -4 -18 -10 0 -5 -9 -10
-20 -10 -11 0 -20 -4 -20 -10 0 -5 -9 -10 -20 -10 -11 0 -20 -4 -20 -10 0 -5
-13 -10 -30 -10 -16 0 -30 -4 -30 -10 0 -5 -18 -10 -40 -10 -22 0 -40 -4 -40
-10 0 -6 -27 -10 -60 -10 -33 0 -60 4 -60 10 0 6 -22 10 -50 10 -27 0 -50 -4
-50 -10 0 -5 -11 -10 -25 -10 -32 0 -95 -61 -95 -90 0 -25 -22 -50 -44 -50 -9
0 -16 -4 -16 -10 0 -5 -16 -10 -35 -10 -38 0 -85 -36 -85 -65 0 -8 -4 -15 -10
-15 -6 0 -10 -27 -10 -60 0 -33 4 -60 10 -60 6 0 10 -12 10 -26 0 -29 21 -54
44 -54 9 0 16 -4 16 -10 0 -6 29 -10 66 -10 65 0 65 0 114 50 40 42 55 50 84
50 20 0 36 5 36 10 0 6 14 10 30 10 17 0 30 5 30 10 0 6 9 10 20 10 13 0 20 7
20 20 0 11 5 20 10 20 6 0 10 9 10 20 0 11 5 20 10 20 6 0 10 7 10 16 0 23 25
44 54 44 14 0 26 5 26 10 0 6 9 10 20 10 11 0 20 5 20 10 0 6 14 10 30 10 17
0 30 5 30 10 0 6 9 10 20 10 11 0 20 5 20 10 0 6 8 10 18 10 10 0 24 9 32 20
8 12 26 20 42 20 15 0 28 5 28 10 0 6 27 10 60 10 33 0 60 4 60 10 0 6 18 10
40 10 33 0 40 -3 40 -20 0 -11 5 -20 10 -20 6 0 10 -22 10 -50 0 -27 5 -50 10
-50 6 0 10 -18 10 -40 0 -30 -4 -40 -16 -40 -9 0 -29 -13 -44 -30 -15 -16 -35
-30 -44 -30 -9 0 -16 -4 -16 -10 0 -5 -7 -10 -16 -10 -9 0 -29 -13 -44 -30
-15 -16 -33 -30 -40 -30 -7 0 -25 -13 -40 -30 -17 -18 -38 -30 -54 -30 -14 0
-26 -4 -26 -10 0 -5 -11 -10 -25 -10 -14 0 -37 -11 -50 -25 -45 -44 -30 -155
19 -155 9 0 16 -4 16 -10 0 -5 9 -10 20 -10 11 0 20 5 20 10 0 6 7 10 15 10
18 0 65 44 65 60 0 17 26 40 44 40 9 0 16 5 16 10 0 6 8 10 18 10 10 0 24 9
32 20 8 11 22 20 32 20 10 0 18 5 18 10 0 6 8 10 18 10 10 0 24 9 32 20 8 11
21 20 30 20 9 0 22 9 30 20 20 27 70 27 70 0 0 -11 5 -20 10 -20 6 0 10 -9 10
-20 0 -11 5 -20 10 -20 6 0 10 -9 10 -20 0 -11 5 -20 10 -20 6 0 10 -9 10 -19
0 -11 5 -21 12 -23 13 -5 -95 -118 -113 -118 -6 0 -28 -18 -49 -40 -21 -22
-44 -40 -50 -40 -6 0 -29 -18 -50 -40 -21 -22 -44 -40 -50 -40 -7 0 -25 -13
-40 -30 -15 -16 -33 -30 -40 -30 -6 0 -29 -18 -50 -40 -21 -22 -44 -40 -50
-40 -7 0 -25 -13 -40 -30 -15 -16 -33 -30 -40 -30 -7 0 -25 -13 -40 -30 -15
-16 -34 -30 -42 -30 -7 0 -20 -9 -28 -20 -8 -11 -21 -20 -28 -20 -8 0 -27 -13
-42 -30 -15 -16 -34 -30 -42 -30 -7 0 -20 -9 -28 -20 -8 -11 -21 -20 -28 -20
-8 0 -27 -13 -42 -30 -15 -16 -35 -30 -44 -30 -9 0 -16 -4 -16 -10 0 -5 -9
-10 -20 -10 -11 0 -20 -4 -20 -10 0 -5 -13 -10 -30 -10 -16 0 -30 5 -30 10 0
6 -22 10 -50 10 -27 0 -50 -4 -50 -10 0 -5 -7 -10 -15 -10 -25 0 -65 -46 -65
-75 0 -14 -4 -25 -10 -25 -5 0 -10 -9 -10 -20 0 -11 5 -20 10 -20 6 0 10 -11
10 -25 0 -29 40 -75 65 -75 8 0 15 -4 15 -10 0 -5 20 -10 45 -10 44 0 49 3
125 80 44 44 84 80 91 80 6 0 24 14 39 30 15 16 33 30 40 30 7 0 25 14 40 30
15 17 33 30 40 30 7 0 25 14 40 30 15 17 33 30 40 30 7 0 25 14 40 30 15 17
33 30 40 30 7 0 25 14 40 30 15 17 34 30 42 30 7 0 20 9 28 20 8 11 21 20 30
20 9 0 22 9 30 20 8 11 21 20 30 20 9 0 22 9 30 20 8 11 22 20 32 20 10 0 18
5 18 10 0 6 14 10 30 10 17 0 30 5 30 10 0 6 14 10 30 10 17 0 30 5 30 10 0 6
7 10 16 10 9 0 29 14 44 30 15 17 33 30 40 30 6 0 29 18 50 40 21 22 44 40 50
40 6 0 29 18 51 41 35 36 41 39 54 25 8 -8 15 -21 15 -29 0 -9 5 -17 12 -19
15 -5 -297 -318 -317 -318 -8 0 -15 -4 -15 -10 0 -5 -9 -10 -20 -10 -11 0 -20
-4 -20 -10 0 -5 -9 -10 -20 -10 -11 0 -20 -4 -20 -10 0 -5 -7 -10 -15 -10 -20
0 -65 -45 -65 -65 0 -8 -4 -15 -10 -15 -5 0 -10 -9 -10 -20 0 -11 -4 -20 -10
-20 -6 0 -10 -30 -10 -70 0 -40 4 -70 10 -70 6 0 10 -7 10 -15 0 -20 65 -85
85 -85 8 0 15 -4 15 -10 0 -6 29 -10 68 -10 56 0 70 3 82 20 8 11 20 20 28 20
18 0 42 25 42 44 0 9 5 16 10 16 6 0 10 9 10 20 0 11 5 20 10 20 6 0 10 28 10
65 0 57 3 69 25 90 13 14 29 25 35 25 16 0 140 128 140 145 0 8 9 15 20 15 12
0 20 7 20 16 0 9 14 29 30 44 17 15 30 35 30 44 0 23 33 20 50 -4 8 -11 20
-20 28 -20 15 0 82 -65 82 -80 0 -6 -27 -38 -60 -70 -33 -32 -60 -64 -60 -70
0 -6 -63 -73 -140 -150 -77 -77 -140 -146 -140 -155 0 -8 -4 -15 -10 -15 -5 0
-10 -7 -10 -16 0 -18 23 -44 39 -44 14 0 161 146 161 160 0 6 41 51 90 100 50
49 90 94 90 100 0 22 89 100 115 100 14 0 25 -4 25 -10 0 -5 8 -10 18 -10 10
0 24 -9 32 -20 8 -11 21 -20 30 -20 9 0 22 -9 30 -20 8 -11 20 -20 28 -20 7 0
20 -7 28 -15 14 -13 7 -23 -55 -84 -39 -39 -71 -75 -71 -82 0 -6 -13 -24 -30
-39 -18 -17 -30 -38 -30 -54 0 -14 -4 -26 -10 -26 -5 0 -10 -13 -10 -30 0 -16
-4 -30 -10 -30 -5 0 -10 -13 -10 -30 0 -16 -4 -30 -10 -30 -5 0 -10 -9 -10
-20 0 -11 -4 -20 -10 -20 -5 0 -10 -9 -10 -20 0 -11 -4 -20 -10 -20 -5 0 -10
-13 -10 -28 0 -16 -8 -34 -20 -42 -11 -8 -20 -21 -20 -28 0 -8 -13 -27 -30
-42 -16 -15 -30 -33 -30 -40 0 -6 -18 -29 -40 -50 -22 -21 -40 -44 -40 -50 0
-22 -29 -40 -64 -40 -20 0 -36 -4 -36 -10 0 -5 -18 -10 -40 -10 -22 0 -40 -4
-40 -10 0 -5 -9 -10 -20 -10 -11 0 -20 -4 -20 -10 0 -5 -13 -10 -30 -10 -16 0
-30 5 -30 10 0 6 -27 10 -60 10 -33 0 -60 -4 -60 -10 0 -5 -9 -10 -20 -10 -13
0 -20 -7 -20 -20 0 -11 -4 -20 -10 -20 -5 0 -10 -20 -10 -45 0 -39 5 -51 35
-80 29 -30 41 -35 80 -35 25 0 45 5 45 10 0 6 7 10 16 10 8 0 33 18 54 40 l38
40 86 0 c51 0 86 4 86 10 0 6 25 10 56 10 56 0 84 14 84 42 0 8 9 20 20 28 11
8 20 22 20 32 0 10 5 18 10 18 6 0 10 9 10 20 0 11 5 20 10 20 6 0 10 8 10 18
0 10 9 24 20 32 11 8 20 21 20 30 0 9 9 22 20 30 11 8 20 21 20 30 0 9 9 22
20 30 11 8 20 21 20 30 0 9 9 22 20 30 11 8 20 21 20 28 0 8 14 27 30 42 17
15 30 33 30 40 0 7 14 25 30 40 17 15 30 35 30 44 0 9 5 16 10 16 6 0 10 14
10 30 0 17 5 30 10 30 6 0 10 14 10 30 0 17 5 30 10 30 6 0 10 9 10 20 0 11 5
20 10 20 6 0 10 8 10 18 0 10 9 24 20 32 11 8 20 22 20 32 0 10 5 18 10 18 6
0 10 -4 10 -10 0 -5 14 -10 30 -10 17 0 30 -4 30 -10 0 -5 9 -10 20 -10 11 0
20 -4 20 -10 0 -5 12 -10 26 -10 29 0 67 -31 46 -38 -9 -3 -12 -55 -12 -213 0
-133 -4 -209 -10 -209 -6 0 -10 -77 -10 -210 0 -133 -4 -210 -10 -210 -6 0
-10 -67 -10 -180 0 -113 -4 -180 -10 -180 -5 0 -10 -9 -10 -20 0 -11 -4 -20
-10 -20 -5 0 -10 -18 -10 -39 0 -22 -6 -42 -12 -45 -10 -5 -10 -7 0 -12 6 -3
12 -17 12 -31 0 -28 21 -53 44 -53 9 0 16 -4 16 -10 0 -5 14 -10 30 -10 17 0
30 5 30 10 0 6 7 10 16 10 20 0 44 24 44 44 0 9 5 16 10 16 6 0 10 23 10 50 0
28 -4 50 -10 50 -5 0 -10 13 -10 29 0 16 -6 32 -12 35 -10 5 -10 7 0 12 9 4
12 81 12 335 0 213 4 329 10 329 6 0 10 93 10 260 l0 260 100 0 100 0 0 -158
c0 -146 -1 -159 -20 -172 -11 -8 -20 -22 -20 -32 0 -10 -4 -18 -10 -18 -6 0
-10 -30 -10 -70 0 -40 4 -70 10 -70 6 0 10 -7 10 -16 0 -18 23 -44 40 -44 19
0 47 -33 32 -38 -9 -3 -12 -47 -12 -171 0 -155 -1 -168 -20 -181 -16 -11 -20
-26 -20 -68 0 -64 30 -102 80 -102 33 0 80 38 80 65 0 8 5 15 10 15 6 0 10 9
10 20 0 11 -4 20 -10 20 -5 0 -10 9 -10 20 0 11 -4 20 -10 20 -5 0 -10 9 -10
20 0 11 -4 20 -10 20 -6 0 -10 65 -10 176 l0 176 40 38 c39 37 40 41 40 104 0
37 -4 66 -10 66 -5 0 -10 8 -10 18 0 10 -9 24 -20 32 -18 13 -20 26 -20 162 0
92 -4 148 -10 148 -5 0 -10 5 -10 10 0 6 50 10 130 10 123 0 130 -1 130 -20 0
-11 -4 -20 -10 -20 -7 0 -10 -180 -10 -520 0 -340 -3 -520 -10 -520 -6 0 -10
-73 -10 -198 0 -186 -1 -198 -20 -212 -11 -8 -20 -22 -20 -32 0 -10 -4 -18
-10 -18 -6 0 -10 -38 -10 -95 l0 -96 45 -44 c36 -36 51 -45 80 -45 19 0 35 5
35 10 0 6 9 10 20 10 11 0 20 5 20 10 0 6 9 10 20 10 13 0 20 7 20 20 0 11 5
20 10 20 6 0 10 22 10 49 0 30 5 52 12 55 10 5 11 7 1 12 -8 3 -13 25 -13 55
0 27 -4 49 -10 49 -7 0 -10 195 -10 566 0 588 0 594 40 594 34 0 40 27 40 190
0 127 3 165 14 176 10 10 38 14 90 14 69 0 96 10 64 23 -10 4 -9 8 2 17 11 9
12 13 3 17 -19 7 -19 979 0 987 10 5 10 7 0 12 -10 4 -13 42 -13 141 0 155 -4
163 -74 163 -25 0 -46 5 -46 10 0 6 -22 10 -50 10 -27 0 -50 5 -50 10 0 6 -30
10 -70 10 -40 0 -70 4 -70 10 0 6 -30 10 -70 10 -40 0 -70 4 -70 10 0 6 -13
10 -30 10 -16 0 -30 5 -30 10 0 6 -7 10 -15 10 -20 0 -105 85 -105 105 0 8 -4
15 -10 15 -7 0 -10 1139 -10 3398 0 3386 0 3398 20 3412 11 8 20 21 20 30 0 9
-9 22 -20 30 -11 8 -20 20 -20 28 0 43 13 42 -812 42 -663 -1 -785 -3 -795
-15z m-33 -4075 c0 -5 9 -10 20 -10 18 0 20 -7 20 -80 0 -47 -4 -80 -10 -80
-5 0 -10 -9 -10 -20 0 -19 -7 -20 -180 -20 -113 0 -180 4 -180 10 0 6 -12 10
-26 10 -35 0 -54 22 -54 64 0 20 -4 36 -10 36 -5 0 -10 5 -10 10 0 6 39 10 98
10 l97 1 35 39 35 39 88 1 c51 0 87 -4 87 -10z m2020 -4460 c0 -5 -9 -10 -20
-10 -11 0 -20 5 -20 10 0 6 9 10 20 10 11 0 20 -4 20 -10z"/>
<path d="M4030 10634 c0 -10 31 -36 37 -31 3 3 -2 13 -10 22 -16 15 -27 19
-27 9z"/>
<path d="M4070 10570 c0 -5 5 -10 10 -10 6 0 10 5 10 10 0 6 -4 10 -10 10 -5
0 -10 -4 -10 -10z"/>
<path d="M4090 10530 c0 -5 5 -10 10 -10 6 0 10 5 10 10 0 6 -4 10 -10 10 -5
0 -10 -4 -10 -10z"/>
<path d="M4130 10420 c0 -33 4 -60 10 -60 6 0 10 27 10 60 0 33 -4 60 -10 60
-6 0 -10 -27 -10 -60z"/>
<path d="M7573 10015 c-13 -13 -23 -31 -23 -40 0 -8 -4 -15 -10 -15 -5 0 -10
-9 -10 -20 0 -11 5 -20 10 -20 6 0 10 -13 10 -30 0 -16 5 -30 10 -30 6 0 10
-22 10 -50 0 -27 -4 -50 -10 -50 -6 0 -10 -37 -10 -90 0 -53 -4 -90 -10 -90
-6 0 -10 -57 -10 -150 0 -93 -4 -150 -10 -150 -6 0 -10 -40 -10 -99 0 -70 -4
-101 -12 -105 -10 -5 -10 -7 0 -12 14 -7 17 -104 2 -104 -6 0 -10 -50 -10
-130 0 -80 -4 -130 -10 -130 -5 0 -10 -8 -10 -18 0 -10 -9 -24 -20 -32 -11 -8
-20 -20 -20 -28 0 -20 47 -62 70 -62 11 0 32 11 45 25 23 23 25 31 25 130 0
63 4 105 10 105 6 0 10 47 10 120 0 73 4 120 10 120 6 0 10 47 10 120 0 73 4
120 10 120 6 0 10 43 10 110 0 67 4 110 10 110 6 0 10 57 10 150 0 93 4 150
10 150 6 0 10 8 10 18 0 10 9 24 20 32 17 12 20 26 20 82 0 61 -2 68 -20 68
-11 0 -20 5 -20 10 0 6 -17 10 -37 9 -27 0 -45 -7 -60 -24z"/>
<path d="M5670 9490 c0 -5 -9 -10 -20 -10 -31 0 -28 -63 5 -95 24 -25 55 -33
55 -15 0 6 9 10 20 10 17 0 20 7 20 50 0 43 -3 50 -20 50 -11 0 -20 5 -20 10
0 6 -9 10 -20 10 -11 0 -20 -4 -20 -10z"/>
<path d="M4090 7790 c0 -5 5 -10 10 -10 6 0 10 5 10 10 0 6 -4 10 -10 10 -5 0
-10 -4 -10 -10z"/>
<path d="M4090 7730 c0 -5 5 -10 10 -10 6 0 10 5 10 10 0 6 -4 10 -10 10 -5 0
-10 -4 -10 -10z"/>
<path d="M4130 7700 c0 -11 5 -20 10 -20 6 0 10 9 10 20 0 11 -4 20 -10 20 -5
0 -10 -9 -10 -20z"/>
<path d="M10350 6890 c0 -5 -7 -10 -15 -10 -20 0 -65 -45 -65 -65 0 -8 -4 -15
-10 -15 -5 0 -10 -9 -10 -20 0 -19 -7 -20 -120 -20 l-120 0 0 -50 c0 -39 -4
-50 -16 -50 -15 0 -44 -23 -44 -34 0 -3 9 -6 20 -6 11 0 20 5 20 10 0 6 9 10
20 10 11 0 20 -4 20 -10 0 -15 177 -13 184 3 5 10 7 10 12 0 3 -7 14 -13 25
-13 10 0 19 -4 19 -10 0 -6 42 -10 106 -10 l106 0 38 40 c21 22 46 40 54 40 9
0 16 5 16 10 0 6 32 10 75 10 67 0 79 3 100 25 19 18 25 35 25 65 0 30 -6 47
-25 65 -23 24 -30 25 -150 25 -77 0 -125 4 -125 10 0 6 -30 10 -70 10 -40 0
-70 -4 -70 -10z"/>
<path d="M9830 6750 c0 -5 9 -10 20 -10 11 0 20 5 20 10 0 6 -9 10 -20 10 -11
0 -20 -4 -20 -10z"/>
<path d="M9870 6690 c0 -5 5 -10 10 -10 6 0 10 5 10 10 0 6 -4 10 -10 10 -5 0
-10 -4 -10 -10z"/>
<path d="M9690 6610 c0 -5 5 -10 10 -10 6 0 10 5 10 10 0 6 -4 10 -10 10 -5 0
-10 -4 -10 -10z"/>
<path d="M9990 6600 c0 -22 -16 -27 -23 -7 -2 6 -8 8 -13 4 -5 -4 -2 -12 6
-18 13 -8 13 -10 0 -18 -8 -6 -11 -13 -7 -17 4 -4 15 3 26 14 10 12 26 22 35
22 9 0 16 8 16 20 0 13 -7 20 -20 20 -13 0 -20 -7 -20 -20z"/>
<path d="M7070 6570 c0 -5 5 -10 10 -10 6 0 10 5 10 10 0 6 -4 10 -10 10 -5 0
-10 -4 -10 -10z"/>
<path d="M7170 6570 c0 -5 5 -10 10 -10 6 0 10 5 10 10 0 6 -4 10 -10 10 -5 0
-10 -4 -10 -10z"/>
<path d="M9530 6574 c0 -10 31 -36 37 -31 3 3 -2 13 -10 22 -16 15 -27 19 -27
9z"/>
<path d="M7410 6550 c0 -5 18 -10 40 -10 22 0 40 5 40 10 0 6 -18 10 -40 10
-22 0 -40 -4 -40 -10z"/>
<path d="M9610 6550 c0 -5 5 -10 10 -10 6 0 10 5 10 10 0 6 -4 10 -10 10 -5 0
-10 -4 -10 -10z"/>
<path d="M7110 6530 c0 -5 9 -10 20 -10 11 0 20 5 20 10 0 6 -9 10 -20 10 -11
0 -20 -4 -20 -10z"/>
<path d="M9810 6510 c0 -5 9 -10 20 -10 11 0 20 5 20 10 0 6 -9 10 -20 10 -11
0 -20 -4 -20 -10z"/>
<path d="M9890 6510 c0 -5 5 -10 10 -10 6 0 10 5 10 10 0 6 -4 10 -10 10 -5 0
-10 -4 -10 -10z"/>
<path d="M7370 6490 c0 -5 5 -10 10 -10 6 0 10 5 10 10 0 6 -4 10 -10 10 -5 0
-10 -4 -10 -10z"/>
<path d="M9430 6490 c0 -5 5 -10 10 -10 6 0 10 5 10 10 0 6 -4 10 -10 10 -5 0
-10 -4 -10 -10z"/>
<path d="M9670 6490 c0 -5 5 -10 10 -10 6 0 10 5 10 10 0 6 -4 10 -10 10 -5 0
-10 -4 -10 -10z"/>
<path d="M6850 6450 c0 -5 5 -10 10 -10 6 0 10 5 10 10 0 6 -4 10 -10 10 -5 0
-10 -4 -10 -10z"/>
<path d="M7550 6450 c0 -5 14 -10 30 -10 17 0 30 5 30 10 0 6 -13 10 -30 10
-16 0 -30 -4 -30 -10z"/>
<path d="M9390 6450 c0 -5 5 -10 10 -10 6 0 10 5 10 10 0 6 -4 10 -10 10 -5 0
-10 -4 -10 -10z"/>
<path d="M9810 6450 c0 -5 5 -10 10 -10 6 0 10 5 10 10 0 6 -4 10 -10 10 -5 0
-10 -4 -10 -10z"/>
<path d="M6790 6434 c0 -10 31 -36 37 -31 3 3 -2 13 -10 22 -16 15 -27 19 -27
9z"/>
<path d="M9651 6414 c-12 -14 -21 -28 -18 -31 6 -5 57 41 57 52 0 11 -16 3
-39 -21z"/>
<path d="M6890 6410 c0 -5 -9 -10 -20 -10 -11 0 -20 -4 -20 -10 0 -15 29 -12
46 4 16 17 18 26 4 26 -5 0 -10 -4 -10 -10z"/>
<path d="M7670 6410 c0 -5 5 -10 10 -10 6 0 10 5 10 10 0 6 -4 10 -10 10 -5 0
-10 -4 -10 -10z"/>
<path d="M9330 6410 c0 -5 9 -10 20 -10 11 0 20 -4 20 -10 0 -5 9 -10 20 -10
11 0 20 5 20 10 0 6 -9 10 -20 10 -11 0 -20 5 -20 10 0 6 -9 10 -20 10 -11 0
-20 -4 -20 -10z"/>
<path d="M9730 6410 c0 -5 5 -10 10 -10 6 0 10 5 10 10 0 6 -4 10 -10 10 -5 0
-10 -4 -10 -10z"/>
<path d="M9690 6370 c0 -5 5 -10 10 -10 6 0 10 5 10 10 0 6 -4 10 -10 10 -5 0
-10 -4 -10 -10z"/>
<path d="M7050 6350 c0 -5 5 -10 10 -10 6 0 10 5 10 10 0 6 -4 10 -10 10 -5 0
-10 -4 -10 -10z"/>
<path d="M9540 6340 c-8 -11 -22 -20 -32 -20 -10 0 -18 -4 -18 -10 0 -14 38
-12 43 3 3 8 11 5 24 -10 25 -28 33 -29 33 -3 0 13 -7 20 -20 20 -11 0 -20 5
-20 10 0 6 9 10 20 10 11 0 20 5 20 10 0 18 -35 11 -50 -10z"/>
<path d="M9650 6350 c0 -5 -9 -10 -20 -10 -11 0 -20 -4 -20 -10 0 -15 29 -12
46 4 16 17 18 26 4 26 -5 0 -10 -4 -10 -10z"/>
<path d="M6910 6331 c0 -5 6 -12 13 -14 9 -4 8 -8 -3 -16 -8 -5 -11 -14 -6
-18 5 -4 11 -2 13 5 3 6 13 12 24 12 10 0 19 5 19 10 0 6 -9 10 -20 10 -11 0
-20 5 -20 10 0 6 -4 10 -10 10 -5 0 -10 -4 -10 -9z"/>
<path d="M6990 6330 c0 -5 5 -10 10 -10 6 0 10 5 10 10 0 6 -4 10 -10 10 -5 0
-10 -4 -10 -10z"/>
<path d="M7110 6330 c0 -5 5 -10 10 -10 6 0 10 5 10 10 0 6 -4 10 -10 10 -5 0
-10 -4 -10 -10z"/>
<path d="M7050 6310 c0 -5 5 -10 10 -10 6 0 10 5 10 10 0 6 -4 10 -10 10 -5 0
-10 -4 -10 -10z"/>
<path d="M6990 6290 c0 -5 -7 -10 -15 -10 -20 0 -70 -49 -60 -58 4 -4 10 -1
12 6 3 6 12 12 22 12 9 0 23 9 31 20 8 11 22 20 32 20 10 0 18 5 18 10 0 6 -9
10 -20 10 -11 0 -20 -4 -20 -10z"/>
<path d="M9170 6290 c0 -5 5 -10 10 -10 6 0 10 5 10 10 0 6 -4 10 -10 10 -5 0
-10 -4 -10 -10z"/>
<path d="M9120 6260 c-16 -22 -46 -27 -53 -7 -2 6 -8 9 -12 5 -9 -8 18 -38 35
-38 11 0 60 44 60 55 0 12 -16 4 -30 -15z"/>
<path d="M9481 6264 c-7 -8 -10 -18 -6 -22 3 -3 10 0 16 8 8 13 10 13 18 0 6
-8 13 -11 17 -8 3 4 -1 14 -9 23 -19 18 -19 18 -36 -1z"/>
<path d="M9210 6230 c0 -5 5 -10 10 -10 6 0 10 5 10 10 0 6 -4 10 -10 10 -5 0
-10 -4 -10 -10z"/>
<path d="M10920 6220 c-14 -20 -26 -20 -721 -20 -557 0 -708 3 -712 13 -2 7
-15 0 -34 -20 -17 -18 -38 -33 -47 -33 -9 0 -16 -4 -16 -10 0 -5 -8 -10 -18
-10 -10 0 -24 -9 -32 -20 -8 -11 -22 -20 -32 -20 -10 0 -18 -4 -18 -10 0 -5
-7 -10 -16 -10 -9 0 -29 -13 -44 -30 -15 -16 -35 -30 -44 -30 -9 0 -16 -4 -16
-10 0 -5 -9 -10 -20 -10 -11 0 -20 3 -20 6 0 11 29 34 44 34 9 0 16 5 16 10 0
19 -31 10 -58 -17 -17 -17 -22 -28 -14 -31 7 -2 12 -8 12 -13 0 -14 -38 -11
-43 4 -2 6 -8 8 -13 4 -5 -4 -2 -12 6 -18 13 -8 13 -10 0 -18 -8 -6 -11 -14
-6 -18 5 -4 11 -2 13 5 3 6 13 12 24 12 10 0 19 5 19 10 0 6 9 10 20 10 16 0
20 -7 20 -30 0 -23 4 -30 20 -30 11 0 20 -4 20 -10 0 -5 23 -10 50 -10 28 0
50 5 50 10 0 6 80 10 220 10 140 0 220 -4 220 -10 0 -15 197 -13 203 3 4 9 8
8 17 -3 9 -11 13 -12 17 -2 2 6 20 12 40 12 41 0 63 19 63 54 0 14 5 26 10 26
6 0 10 7 10 16 0 43 8 44 424 44 257 0 396 -4 396 -10 0 -5 20 -10 45 -10 39
0 51 5 80 35 33 33 48 85 25 85 -5 0 -10 12 -10 26 0 39 -22 54 -82 54 -42 0
-57 -4 -68 -20z"/>
<path d="M9130 6210 c0 -5 5 -10 10 -10 6 0 10 5 10 10 0 6 -4 10 -10 10 -5 0
-10 -4 -10 -10z"/>
<path d="M9290 6210 c0 -5 5 -10 10 -10 6 0 10 5 10 10 0 6 -4 10 -10 10 -5 0
-10 -4 -10 -10z"/>
<path d="M6590 6190 c0 -5 5 -10 10 -10 6 0 10 5 10 10 0 6 -4 10 -10 10 -5 0
-10 -4 -10 -10z"/>
<path d="M6641 6184 c-18 -21 -6 -30 14 -11 8 9 15 18 15 21 0 11 -15 5 -29
-10z"/>
<path d="M6710 6190 c0 -5 5 -10 10 -10 6 0 10 5 10 10 0 6 -4 10 -10 10 -5 0
-10 -4 -10 -10z"/>
<path d="M6770 6170 c0 -5 5 -10 10 -10 6 0 10 5 10 10 0 6 -4 10 -10 10 -5 0
-10 -4 -10 -10z"/>
<path d="M9150 6170 c0 -5 5 -10 10 -10 6 0 10 5 10 10 0 6 -4 10 -10 10 -5 0
-10 -4 -10 -10z"/>
<path d="M9310 6170 c0 -5 5 -10 10 -10 6 0 10 5 10 10 0 6 -4 10 -10 10 -5 0
-10 -4 -10 -10z"/>
<path d="M6791 6134 c-12 -14 -21 -28 -18 -31 6 -5 57 41 57 52 0 11 -16 3
-39 -21z"/>
<path d="M6550 6130 c0 -5 5 -10 10 -10 6 0 10 5 10 10 0 6 -4 10 -10 10 -5 0
-10 -4 -10 -10z"/>
<path d="M6670 6120 c0 -24 6 -25 26 -6 19 20 18 26 -6 26 -13 0 -20 -7 -20
-20z"/>
<path d="M8910 6130 c0 -5 5 -10 10 -10 6 0 10 5 10 10 0 6 -4 10 -10 10 -5 0
-10 -4 -10 -10z"/>
<path d="M8970 6130 c0 -5 5 -10 10 -10 6 0 10 5 10 10 0 6 -4 10 -10 10 -5 0
-10 -4 -10 -10z"/>
<path d="M9161 6124 c-7 -8 -10 -18 -6 -22 4 -4 10 -1 12 6 3 6 13 12 24 12
10 0 19 5 19 10 0 15 -33 11 -49 -6z"/>
<path d="M9250 6120 c0 -24 6 -25 26 -6 19 20 18 26 -6 26 -13 0 -20 -7 -20
-20z"/>
<path d="M6590 6110 c0 -5 5 -10 10 -10 6 0 10 5 10 10 0 6 -4 10 -10 10 -5 0
-10 -4 -10 -10z"/>
<path d="M6711 6074 c-12 -14 -21 -28 -18 -31 6 -5 57 41 57 52 0 11 -16 3
-39 -21z"/>
<path d="M8143 6085 c-18 -20 -16 -25 7 -25 11 0 20 -4 20 -10 0 -5 9 -10 19
-10 11 0 21 -6 24 -12 2 -7 8 -10 12 -6 6 5 -58 79 -67 78 -2 -1 -9 -7 -15
-15z"/>
<path d="M8870 6090 c0 -5 5 -10 10 -10 6 0 10 5 10 10 0 6 -4 10 -10 10 -5 0
-10 -4 -10 -10z"/>
<path d="M9210 6080 c0 -11 5 -20 10 -20 6 0 10 9 10 20 0 11 -4 20 -10 20 -5
0 -10 -9 -10 -20z"/>
<path d="M8830 6070 c0 -5 5 -10 10 -10 6 0 10 5 10 10 0 6 -4 10 -10 10 -5 0
-10 -4 -10 -10z"/>
<path d="M8970 6070 c0 -5 5 -10 10 -10 6 0 10 5 10 10 0 6 -4 10 -10 10 -5 0
-10 -4 -10 -10z"/>
<path d="M6450 6050 c0 -5 5 -10 10 -10 6 0 10 5 10 10 0 6 -4 10 -10 10 -5 0
-10 -4 -10 -10z"/>
<path d="M6601 6024 c-18 -21 -6 -30 14 -11 8 9 15 18 15 21 0 11 -15 5 -29
-10z"/>
<path d="M8990 6014 c0 -4 10 -15 22 -25 l21 -19 -23 -20 c-21 -18 -21 -20 -6
-36 9 -9 20 -13 24 -10 3 4 0 11 -8 16 -12 7 -10 12 9 29 l23 20 -26 26 c-25
25 -36 31 -36 19z"/>
<path d="M6641 5984 c-18 -21 -6 -30 14 -11 8 9 15 18 15 21 0 11 -15 5 -29
-10z"/>
<path d="M8690 5970 c0 -5 9 -10 20 -10 11 0 20 5 20 10 0 6 -9 10 -20 10 -11
0 -20 -4 -20 -10z"/>
<path d="M8642 5944 c-11 -12 -10 -17 3 -30 9 -9 19 -13 23 -10 3 4 0 12 -8
17 -11 8 -12 12 -2 16 13 5 17 23 5 23 -5 -1 -14 -7 -21 -16z"/>
<path d="M8810 5890 c0 -5 5 -10 10 -10 6 0 10 5 10 10 0 6 -4 10 -10 10 -5 0
-10 -4 -10 -10z"/>
<path d="M6510 5870 c0 -5 5 -10 10 -10 6 0 10 5 10 10 0 6 -4 10 -10 10 -5 0
-10 -4 -10 -10z"/>
<path d="M8810 5850 c0 -5 5 -10 10 -10 6 0 10 5 10 10 0 6 -4 10 -10 10 -5 0
-10 -4 -10 -10z"/>
<path d="M8730 5830 c0 -5 9 -10 20 -10 11 0 20 5 20 10 0 6 -9 10 -20 10 -11
0 -20 -4 -20 -10z"/>
<path d="M6530 5810 c0 -5 5 -10 10 -10 6 0 10 5 10 10 0 6 -4 10 -10 10 -5 0
-10 -4 -10 -10z"/>
<path d="M8430 5794 c0 -10 31 -36 37 -31 3 3 -2 13 -10 22 -16 15 -27 19 -27
9z"/>
<path d="M8690 5780 c0 -24 6 -25 26 -6 19 20 18 26 -6 26 -13 0 -20 -7 -20
-20z"/>
<path d="M8490 5770 c0 -5 5 -10 10 -10 6 0 10 5 10 10 0 6 -4 10 -10 10 -5 0
-10 -4 -10 -10z"/>
<path d="M6490 5720 c0 -11 5 -20 10 -20 6 0 10 9 10 20 0 11 -4 20 -10 20 -5
0 -10 -9 -10 -20z"/>
<path d="M8490 5710 c0 -5 5 -10 10 -10 6 0 10 5 10 10 0 6 -4 10 -10 10 -5 0
-10 -4 -10 -10z"/>
<path d="M8630 5710 c0 -5 5 -10 10 -10 6 0 10 5 10 10 0 6 -4 10 -10 10 -5 0
-10 -4 -10 -10z"/>
<path d="M8521 5684 c-7 -8 -10 -18 -6 -22 4 -4 10 -1 12 6 3 6 13 12 24 12
10 0 19 5 19 10 0 15 -33 11 -49 -6z"/>
<path d="M8610 5670 c0 -5 5 -10 10 -10 6 0 10 5 10 10 0 6 -4 10 -10 10 -5 0
-10 -4 -10 -10z"/>
<path d="M8550 5650 c0 -5 5 -10 10 -10 6 0 10 5 10 10 0 6 -4 10 -10 10 -5 0
-10 -4 -10 -10z"/>
<path d="M11130 5630 c0 -5 -8 -10 -18 -10 -10 0 -24 -9 -32 -20 -8 -11 -21
-20 -28 -20 -7 0 -31 -18 -52 -40 l-38 -40 -266 0 c-171 0 -266 4 -266 10 0 6
-9 10 -20 10 -11 0 -20 5 -20 10 0 6 -13 10 -30 10 -16 0 -30 -4 -30 -10 0 -5
-9 -10 -20 -10 -13 0 -20 -7 -20 -20 0 -11 -4 -20 -10 -20 -5 0 -10 -18 -10
-40 0 -22 5 -40 10 -40 6 0 10 -9 10 -20 0 -13 7 -20 20 -20 11 0 20 -4 20
-10 0 -5 14 -10 30 -10 17 0 30 5 30 10 0 6 9 10 20 10 11 0 20 5 20 10 0 6
99 10 276 10 l276 0 28 -30 c15 -16 34 -30 42 -30 7 0 20 -9 28 -20 8 -11 22
-20 32 -20 10 0 18 -4 18 -10 0 -6 32 -10 75 -10 l76 0 44 45 c25 24 45 51 45
60 0 8 5 15 10 15 6 0 10 30 10 70 0 40 -4 70 -10 70 -5 0 -10 9 -10 20 0 11
-4 20 -10 20 -5 0 -10 9 -10 20 0 13 -7 20 -18 20 -10 0 -24 9 -32 20 -12 17
-26 20 -92 20 -45 0 -78 -4 -78 -10z"/>
<path d="M9990 5590 c0 -5 -7 -10 -16 -10 -9 0 -29 -13 -44 -30 l-28 -30 -266
0 c-259 0 -266 -1 -266 -20 0 -11 -4 -20 -10 -20 -21 0 -10 -70 15 -95 l24
-25 276 0 c177 0 275 -4 275 -10 0 -6 28 -10 65 -10 57 0 69 3 90 25 14 13 25
31 25 40 0 8 5 15 10 15 6 0 10 14 10 30 0 17 -4 30 -10 30 -5 0 -10 11 -10
25 0 29 -40 75 -65 75 -8 0 -15 5 -15 10 0 6 -13 10 -30 10 -16 0 -30 -4 -30
-10z"/>
<path d="M230 5550 c0 -5 -7 -10 -15 -10 -20 0 -65 -45 -65 -65 0 -8 -4 -15
-10 -15 -5 0 -10 -13 -10 -30 0 -16 5 -30 10 -30 6 0 10 -11 10 -25 0 -14 11
-37 25 -50 21 -22 33 -25 100 -25 43 0 75 4 75 10 0 6 9 10 20 10 11 0 20 5
20 10 0 6 130 10 370 10 240 0 370 4 370 10 0 6 7 10 16 10 8 0 22 6 30 14 16
17 19 66 4 66 -5 0 -10 9 -10 20 0 13 -7 20 -20 20 -11 0 -20 5 -20 10 0 6
-127 10 -360 10 -233 0 -360 4 -360 10 0 6 -9 10 -20 10 -11 0 -20 5 -20 10 0
6 -13 10 -30 10 -16 0 -30 5 -30 10 0 6 -18 10 -40 10 -22 0 -40 -4 -40 -10z"/>
<path d="M11590 5520 c0 -11 -4 -20 -10 -20 -5 0 -10 -9 -10 -20 0 -11 -4 -20
-10 -20 -5 0 -10 -9 -10 -20 0 -11 5 -20 10 -20 6 0 10 -7 10 -15 0 -9 11 -27
25 -40 42 -43 135 -29 135 19 0 9 5 16 10 16 6 0 10 18 10 40 0 22 -4 40 -10
40 -5 0 -10 7 -10 16 0 30 -27 44 -84 44 -49 0 -56 -2 -56 -20z"/>
<path d="M1473 5075 c-27 -28 -28 -41 -9 -61 17 -16 106 -20 106 -4 0 6 43 10
110 10 67 0 110 -4 110 -10 0 -15 157 -13 164 3 5 10 7 10 12 0 8 -18 72 -16
90 1 8 8 14 26 14 40 l0 26 -260 0 c-167 0 -260 4 -260 10 0 19 -55 9 -77 -15z"/>
<path d="M9750 5090 c0 -5 -7 -10 -16 -10 -18 0 -44 -23 -44 -40 0 -16 26 -40
43 -40 9 0 18 -6 21 -12 5 -10 7 -10 12 0 3 6 23 12 45 12 21 0 39 5 39 10 0
6 9 10 20 10 11 0 20 -4 20 -10 0 -14 37 -12 44 3 5 10 7 10 12 0 4 -10 64
-13 251 -13 265 0 273 2 273 54 l0 26 -330 0 c-213 0 -330 4 -330 10 0 6 -13
10 -30 10 -16 0 -30 -4 -30 -10z"/>
<path d="M4130 3770 c0 -5 5 -10 10 -10 6 0 10 5 10 10 0 6 -4 10 -10 10 -5 0
-10 -4 -10 -10z"/>
<path d="M9741 3484 c-18 -21 -6 -30 14 -11 8 9 15 18 15 21 0 11 -15 5 -29
-10z"/>
<path d="M9750 3420 c0 -11 5 -20 10 -20 6 0 10 9 10 20 0 11 -4 20 -10 20 -5
0 -10 -9 -10 -20z"/>
<path d="M9690 3410 c0 -5 5 -10 10 -10 6 0 10 5 10 10 0 6 -4 10 -10 10 -5 0
-10 -4 -10 -10z"/>
<path d="M9710 3360 c0 -11 5 -20 10 -20 6 0 10 9 10 20 0 11 -4 20 -10 20 -5
0 -10 -9 -10 -20z"/>
<path d="M9770 3360 c0 -11 5 -20 10 -20 6 0 10 9 10 20 0 11 -4 20 -10 20 -5
0 -10 -9 -10 -20z"/>
<path d="M9810 3370 c0 -5 5 -10 10 -10 6 0 10 5 10 10 0 6 -4 10 -10 10 -5 0
-10 -4 -10 -10z"/>
<path d="M9611 3334 c-12 -14 -21 -28 -18 -31 6 -5 57 41 57 52 0 11 -16 3
-39 -21z"/>
<path d="M9670 3330 c0 -5 5 -10 10 -10 6 0 10 5 10 10 0 6 -4 10 -10 10 -5 0
-10 -4 -10 -10z"/>
<path d="M9810 3290 c0 -5 5 -10 10 -10 6 0 10 5 10 10 0 6 -4 10 -10 10 -5 0
-10 -4 -10 -10z"/>
<path d="M9570 3270 c0 -5 5 -10 10 -10 6 0 10 -9 10 -20 0 -11 5 -20 10 -20
15 0 12 29 -4 46 -17 16 -26 18 -26 4z"/>
<path d="M9790 3250 c0 -5 5 -10 10 -10 6 0 10 5 10 10 0 6 -4 10 -10 10 -5 0
-10 -4 -10 -10z"/>
<path d="M9530 3230 c0 -5 5 -10 10 -10 6 0 10 5 10 10 0 6 -4 10 -10 10 -5 0
-10 -4 -10 -10z"/>
<path d="M9570 3190 c0 -5 5 -10 10 -10 6 0 10 5 10 10 0 6 -4 10 -10 10 -5 0
-10 -4 -10 -10z"/>
<path d="M9710 3154 c0 -10 31 -36 37 -31 3 3 -2 13 -10 22 -16 15 -27 19 -27
9z"/>
<path d="M9661 3124 c-18 -21 -6 -30 14 -11 8 9 15 18 15 21 0 11 -15 5 -29
-10z"/>
<path d="M9401 3064 c-18 -21 -6 -30 14 -11 8 9 15 18 15 21 0 11 -15 5 -29
-10z"/>
<path d="M9630 3070 c0 -5 5 -10 10 -10 6 0 10 -9 10 -20 0 -11 -4 -20 -10
-20 -5 0 -10 -7 -10 -15 0 -20 -65 -85 -85 -85 -8 0 -15 3 -15 6 0 11 29 34
44 34 20 0 20 7 2 26 -20 19 -26 18 -26 -6 0 -26 -8 -25 -31 2 -11 11 -22 18
-26 14 -4 -4 -1 -11 7 -17 13 -8 13 -10 0 -20 -11 -8 -12 -12 -2 -16 6 -2 12
-13 12 -23 0 -10 -6 -20 -12 -23 -7 -2 -9 -8 -5 -13 4 -5 13 -2 18 6 8 11 12
12 16 3 2 -7 11 -13 19 -13 8 0 42 -27 74 -60 32 -33 64 -60 70 -60 6 0 33
-22 60 -50 27 -27 54 -50 59 -50 6 0 54 -43 106 -95 l95 -95 0 -55 c0 -30 5
-55 10 -55 6 0 10 -9 10 -20 0 -13 7 -20 20 -20 11 0 20 -4 20 -10 0 -6 30
-10 70 -10 40 0 70 4 70 10 0 6 7 10 16 10 20 0 44 24 44 44 0 9 5 16 10 16 6
0 10 27 10 60 0 33 -4 60 -10 60 -5 0 -10 9 -10 20 0 13 -7 20 -20 20 -11 0
-20 5 -20 10 0 6 -13 10 -30 10 -16 0 -30 5 -30 10 0 6 -11 10 -25 10 -19 0
-47 22 -105 80 -44 44 -84 80 -90 80 -6 0 -33 23 -60 50 -27 28 -54 50 -60 50
-6 0 -38 27 -70 60 -32 33 -64 60 -70 60 -17 0 -40 26 -40 44 0 9 5 16 10 16
6 0 10 9 10 20 0 13 7 20 20 20 11 0 20 5 20 10 0 14 -37 12 -44 -2 -5 -10 -7
-10 -12 0 -7 14 -24 16 -24 2z m-100 -120 c0 -5 -4 -10 -10 -10 -5 0 -10 5
-10 10 0 6 5 10 10 10 6 0 10 -4 10 -10z"/>
<path d="M9281 2984 c-18 -21 -6 -30 14 -11 8 9 15 18 15 21 0 11 -15 5 -29
-10z"/>
<path d="M9281 2924 c-18 -21 -6 -30 14 -11 8 9 15 18 15 21 0 11 -15 5 -29
-10z"/>
<path d="M9223 2865 c-15 -17 -17 -45 -3 -45 6 0 10 9 10 20 0 11 5 20 10 20
6 0 10 5 10 10 0 14 -13 12 -27 -5z"/>
<path d="M9290 2870 c0 -5 5 -10 10 -10 6 0 10 5 10 10 0 6 -4 10 -10 10 -5 0
-10 -4 -10 -10z"/>
<path d="M9451 2834 c-12 -14 -21 -28 -18 -31 6 -5 57 41 57 52 0 11 -16 3
-39 -21z"/>
<path d="M9150 2800 c0 -11 5 -20 10 -20 6 0 10 9 10 20 0 11 -4 20 -10 20 -5
0 -10 -9 -10 -20z"/>
<path d="M9350 2810 c0 -5 9 -10 20 -10 24 0 25 -6 3 -28 -12 -12 -18 -13 -21
-4 -4 14 -42 16 -42 2 0 -5 9 -10 19 -10 11 0 21 -5 23 -12 3 -8 14 -2 32 15
24 24 25 29 12 42 -17 17 -46 20 -46 5z"/>
<path d="M9130 2750 c0 -5 5 -10 10 -10 6 0 10 5 10 10 0 6 -4 10 -10 10 -5 0
-10 -4 -10 -10z"/>
<path d="M9270 2730 c0 -5 -9 -10 -20 -10 -15 0 -20 -7 -20 -26 0 -16 -12 -37
-31 -55 l-30 -28 115 -116 c64 -63 123 -115 131 -115 8 0 15 -9 15 -20 0 -11
5 -20 10 -20 6 0 10 -9 10 -20 0 -11 5 -20 10 -20 6 0 10 -13 10 -30 0 -16 5
-30 10 -30 6 0 10 -9 10 -20 0 -13 7 -20 20 -20 11 0 20 -4 20 -10 0 -5 25
-10 55 -10 50 0 59 3 90 35 33 32 35 38 35 100 0 37 -4 65 -10 65 -5 0 -10 9
-10 20 0 13 -7 20 -20 20 -11 0 -20 5 -20 10 0 6 -26 10 -58 10 -46 0 -60 4
-72 20 -8 11 -20 20 -28 20 -7 0 -57 45 -112 100 -55 55 -106 100 -115 100 -8
0 -15 3 -15 6 0 11 29 34 44 34 9 0 16 5 16 10 0 6 -9 10 -20 10 -11 0 -20 -4
-20 -10z"/>
<path d="M9090 2710 c0 -5 5 -10 10 -10 6 0 10 5 10 10 0 6 -4 10 -10 10 -5 0
-10 -4 -10 -10z"/>
<path d="M9170 2660 c0 -11 5 -20 10 -20 6 0 10 9 10 20 0 11 -4 20 -10 20 -5
0 -10 -9 -10 -20z"/>
<path d="M9130 2650 c0 -5 5 -10 10 -10 6 0 10 5 10 10 0 6 -4 10 -10 10 -5 0
-10 -4 -10 -10z"/>
<path d="M8990 2630 c0 -5 5 -10 10 -10 6 0 10 5 10 10 0 6 -4 10 -10 10 -5 0
-10 -4 -10 -10z"/>
<path d="M9090 2630 c0 -5 5 -10 10 -10 6 0 10 5 10 10 0 6 -4 10 -10 10 -5 0
-10 -4 -10 -10z"/>
<path d="M8650 2410 c0 -5 5 -10 10 -10 6 0 10 5 10 10 0 6 -4 10 -10 10 -5 0
-10 -4 -10 -10z"/>
<path d="M3450 2170 c0 -5 -7 -10 -15 -10 -27 0 -65 -47 -65 -80 0 -42 21 -60
70 -60 52 0 70 18 70 70 0 30 -6 47 -25 65 -26 27 -35 31 -35 15z"/>
<path d="M2560 2080 c-8 -11 -22 -20 -32 -20 -14 0 -18 -8 -18 -40 0 -33 3
-40 19 -40 11 0 21 -5 23 -12 6 -18 78 58 78 82 0 24 -22 50 -42 50 -8 0 -20
-9 -28 -20z"/>
<path d="M5643 1505 c-7 -8 -13 -21 -13 -30 0 -8 -4 -15 -10 -15 -5 0 -10 -9
-10 -20 0 -11 5 -20 10 -20 6 0 10 -9 10 -20 0 -13 7 -20 20 -20 11 0 20 -4
20 -10 0 -18 31 -10 55 15 25 25 36 95 15 95 -5 0 -10 9 -10 20 0 17 -7 20
-37 20 -21 -1 -44 -7 -50 -15z"/>
<path d="M5063 1145 c-7 -8 -13 -24 -13 -35 0 -22 41 -70 60 -70 21 0 40 28
40 60 0 17 -6 38 -14 46 -18 18 -57 18 -73 -1z"/>
<path d="M4310 330 c0 -5 -9 -10 -20 -10 -13 0 -20 -7 -20 -20 0 -11 -4 -20
-10 -20 -5 0 -10 -7 -10 -15 0 -18 44 -65 60 -65 19 0 60 48 60 70 0 12 -11
32 -25 45 -26 27 -35 31 -35 15z"/>
</g>
</svg>
